/* XPM */
static char *_632991874379[] = {
/* columns rows colors chars-per-pixel */
"32 32 34 1 ",
"  c gray10",
". c gray11",
"X c gray13",
"o c #252525",
"O c #2A2A2A",
"+ c #2F2F2F",
"@ c #323232",
"# c #353535",
"$ c #393939",
"% c gray24",
"& c #434343",
"* c #444444",
"= c #484848",
"- c gray31",
"; c #505050",
": c gray34",
"> c #585858",
", c gray37",
"< c gray38",
"1 c #646464",
"2 c gray42",
"3 c #6F6F6F",
"4 c gray44",
"5 c gray46",
"6 c gray47",
"7 c #7C7C7C",
"8 c gray60",
"9 c #9B9B9B",
"0 c #9D9D9D",
"q c #9F9F9F",
"w c #C6C6C6",
"e c #CACACA",
"r c #CECECE",
"t c #D2D2D2",
/* pixels */
"::::::-@4>>4>09000009:-@4>::::::",
":4:::-@4@4>6662343446544@4::4:::",
"::::-@7:4#64434335,535554@4:::4:",
":::-@7::>462335423232335>4@4::::",
"::-@7:::>06352222232,334@:4@4:44",
":-@7:::4>0433,333,523522<::4@4::",
"-@7:::::>022222,23222552,:::4@4:",
"@7::44::>05232352222,332,4:::4@-",
"4:::::::402,222222,22222,:::::-@",
"@4:::3::>,66323,232<232>@:4::-@4",
"4@4::::::,5322252,25353:@:::-@4:",
":4@4:::3:,;;2233533222>&@>:-@7::",
"::3@5,,,+@;2;,352321,>=&X<;#6>>:",
"4,,5tttr--@*2;;;-*===*&.@:1<115,",
">rrr;;;;;;$@;;2;=*=;$-+X;::;:4rr",
":@@@---;:;*@%=;-*$=**-+X1<,<<>+@",
"::4:++@+<,@32-;@@@@*==*o<,++O@::",
":::::-@3+@-;-%$;;1<#*;;*+O    X;",
"4:::-@7:3,%;%6t;;;1<@=*-O      .",
":::-@7:::,1236e>;;1>@;*&O  ..Xo>",
"::-@6>>::>@;;>7t;:<+*=*+ .X.4:::",
":-@4::4>::@;<:7t;;,@=**O X>4#4::",
"-@7:::::::3O@&6t;;<+*OO  X::4@4:",
"@744::::33:XX@5w,;>++    o:::4@-",
"4::::::4:::::. 5t=+     o>::::-@",
"@4:::::::4:::- 9t-O   .o:4:::-@4",
"4@4:444:::::-@77r-O   O:::::-@7:",
":4@4::4::::-@6>7w=+  X::4::-@7::",
"::4@4:::::-@7>4>5@2  X::::-@4:::",
":::4@4:::-@7:>>>4$3X O:::-@7:4::",
"::::4@4:-@7:4::::::;X#4:-@4:::4:",
"4:4::4@-@4::::::4:>;.4@-@7::::::"
};
