/* XPM */
static char *_632810799662[] = {
/* columns rows colors chars-per-pixel */
"32 32 91 1 ",
"  c #120D0A",
". c #1A1616",
"X c #1E1A17",
"o c #221C1D",
"O c #2E2729",
"+ c #2D2828",
"@ c #322D2D",
"# c #382F2E",
"$ c #3D352C",
"% c #343636",
"& c #3B3635",
"* c #3E3A3B",
"= c #453A27",
"- c #463C2D",
"; c #433D3C",
": c #47403F",
"> c #48413F",
", c #4C4A3E",
"< c gray25",
"1 c #4B4544",
"2 c #4D4B4B",
"3 c #504B47",
"4 c #534C4D",
"5 c #57504F",
"6 c #535253",
"7 c #5C5554",
"8 c #5E5857",
"9 c #5B5B5B",
"0 c #655944",
"q c #6B5C45",
"w c #605857",
"e c #645D5C",
"r c #67605E",
"t c #6C615F",
"y c #7A6A54",
"u c #5F6060",
"i c #636363",
"p c #6C6463",
"a c #6A6B6A",
"s c #706666",
"d c #736B6A",
"f c #796F6E",
"g c #7A706F",
"h c #796F70",
"j c #7C7372",
"k c #7F7879",
"l c #867449",
"z c #847356",
"x c #8B7757",
"c c #83755D",
"v c #8B7F5D",
"b c #927E59",
"n c #807575",
"m c #827976",
"M c #847C7C",
"N c #897E7E",
"B c #A68F5F",
"V c #998761",
"C c #89807E",
"Z c #8D8483",
"A c #918684",
"S c #928886",
"D c #958C8A",
"F c #9B918E",
"G c #979493",
"H c #9E9493",
"J c #9F9898",
"K c #A19695",
"L c #A39896",
"P c #A59B9A",
"I c #A99E9D",
"U c #A5A09B",
"Y c #ABA19F",
"T c #ADA3A2",
"R c #AEA9A4",
"E c #B1A6A5",
"W c #B2A8A6",
"Q c #B5ABAA",
"! c #B9AEAD",
"~ c #BAB1AE",
"^ c #BDB4B2",
"/ c #C0B6B5",
"( c #C2B9B6",
") c #C5BCBB",
"_ c #C9BFBE",
"` c #C7C0BD",
"' c #C9C1BF",
"] c #CDC4C2",
"[ c #CFC8C7",
"{ c #D1C9C6",
"} c #D5CCCB",
/* pixels */
",2u99u997u999u6*<uaaaaiiii6699<%",
"lG]]]]))_)^WQ^P12^))_/!W/^II!^k&",
"B])^^^!WTEEEEW!hI_PPKIIITTIKHP/1",
"B'^QTTTTTTTEEEEnR!JJJLPLPPKLPL)7",
"V_/TJPTTYYYWETEkU!PJGJHKLPPITP~7",
"b_^IJHPPIIYTTTEhJ^QPKHHPIPPTEYKt",
"b]^PKFHPIPIIITEjU)QPKLPTTTTTTTPd",
"b]/YPKPWEIYIIYEMT)WPPPTTWQWWW!!f",
"V_WIPITEETYIPYWNT)EILKYEWWWWW~Qh",
"b/IIIPIEEEYITEQmW/WIKITEQWETWQYf",
"bQLPKPITTIIT!^~hE^QIKPTWWTYPPYYd",
"x!IPPIYTTTTQ/^~tE^!TKITETPPPPEEe",
"y)WIIIITTTIW//!wJ!Q!ETYYIIPPLYY1",
"y]/QTTIE^!ET^)/7D^!/(/QEYEETI!P;",
"qT_])/^))/!Q!/D*A___]]{]]}}]]]/&",
"=#tnNDDDZNde2;#@&dNZCMNMMMmCmpwo",
"-8PPFACNNNZNne;@OnT//QLLLLPPHd+o",
"y[})WIILLPIQWQEed]]/TIPYEYYTW(W$",
"c})WPPLKHLEQQWQsI]WHHHHKLLLLU~(>",
"z)YPPKHKHIQQWETsY)IHKKLKLLLPIY~1",
"bQYYPLHHIW!WTTYhT)YPPPIPPPPPPY/t",
"b)ETILFLT!WTPYTAT)YPIYTYTYYUPUQd",
"v[^ETIPT!WYUPTEAT)YPPYTETYWYPP!d",
"b)^TTTTWTPPYYTWAR)EPLPPPUEWYPP/g",
"b)!TTIPIKKLTIITAT!PPIPTPIIYYIL!g",
"b)!YETPLKKIPKKPnPWIPPPPPPYYIPPWg",
"b/WYWWIKFPPKHKKdI^YPLLIIYIYYIPTf",
"V_QE!~WPPIPPKKPsG^TPPPPIIIYYYYQt",
"V[TE!!!QETYPPY/hS^EIPIIIIYYTQQ~t",
"c[^TW!!QQWTEQ^]dm)^EYTTEEW!~~!)3",
"0T[)//)[_)^!~QD@1P__(^^^^(``(~D@",
"$*5w97767751*Oo  X:jAZgr84111;#."
};
