/* XPM */
static char *_633342915754[] = {
/* columns rows colors chars-per-pixel */
"32 32 175 2 ",
"   c #000008",
".  c #0C0B0B",
"X  c #14130E",
"o  c #020212",
"O  c #0B0314",
"+  c #02041C",
"@  c #0D051D",
"#  c #04081D",
"$  c #12051E",
"%  c #1F1E11",
"&  c #010625",
"*  c #090629",
"=  c #050829",
"-  c #1C0B2C",
";  c #170828",
":  c #10152C",
">  c #000930",
",  c #010B3C",
"<  c #090A3C",
"1  c #1F0A3A",
"2  c #0A1231",
"3  c #2A0C39",
"4  c #320D3F",
"5  c #350925",
"6  c #24242B",
"7  c #2D2D34",
"8  c #35353B",
"9  c #78712B",
"0  c #040D44",
"q  c #0A0C41",
"w  c #000E4D",
"e  c #0B0E4A",
"r  c #110D4E",
"t  c #12124A",
"y  c #050F54",
"u  c #120F5A",
"i  c #03105B",
"p  c #06105A",
"a  c #2F0F42",
"s  c #350D41",
"d  c #39124D",
"f  c #242A43",
"g  c #3C3C42",
"h  c #0C126B",
"j  c #0B1163",
"k  c #191162",
"l  c #17126B",
"z  c #1B1372",
"x  c #151479",
"c  c #121474",
"v  c #27236E",
"b  c #3A3E62",
"n  c #450F4D",
"m  c #4A1152",
"M  c #441356",
"N  c #55125A",
"B  c #43274F",
"V  c #4C2155",
"C  c #502459",
"Z  c #443750",
"A  c #4D1763",
"S  c #5C1667",
"D  c #591A70",
"F  c #6D166F",
"G  c #671973",
"H  c #781878",
"J  c #731875",
"K  c #5D2E64",
"L  c #47434F",
"P  c #5B5B5F",
"I  c #434658",
"U  c #5B5B60",
"Y  c #5B5D69",
"T  c #444B69",
"R  c #685271",
"E  c #765C7E",
"W  c #5B6074",
"Q  c #65656E",
"!  c #727277",
"~  c #656979",
"^  c #870C03",
"/  c #BF1000",
"(  c #8D1657",
")  c #9F2359",
"_  c #9D2C6D",
"`  c #8D8431",
"'  c #1B1683",
"]  c #1F1689",
"[  c #22168C",
"{  c #281585",
"}  c #251792",
"|  c #291899",
" . c #281994",
".. c #321791",
"X. c #3C2680",
"o. c #2A2595",
"O. c #2E19A0",
"+. c #311AA3",
"@. c #3C1AA6",
"#. c #351BAA",
"$. c #3A1BAD",
"%. c #3D1CB5",
"&. c #3825A6",
"*. c #3E2AB2",
"=. c #681C87",
"-. c #7F1F8E",
";. c #781D85",
":. c #7F269D",
">. c #4019A0",
",. c #401DB8",
"<. c #591EBB",
"1. c #6323B2",
"2. c #6C7184",
"3. c None",
"4. c #737591",
"5. c #747CA4",
"6. c #451EC1",
"7. c #4C1EC8",
"8. c #481EC4",
"9. c #4D21CC",
"0. c #4A27C7",
"q. c #4D33C9",
"w. c #4C32C7",
"e. c #503ECB",
"r. c #5121D1",
"t. c #572CD8",
"y. c #5D3DDF",
"u. c #5D35E1",
"i. c #6139E5",
"p. c #643EE9",
"a. c #7543D7",
"s. c #6641EC",
"d. c #6946EE",
"f. c #684CEC",
"g. c #6B49F2",
"h. c #801F8E",
"j. c #88218F",
"k. c #862396",
"l. c #8828A8",
"z. c #8427A3",
"x. c #9E2CAD",
"c. c #912CAE",
"v. c #962EB5",
"b. c #9E2FB8",
"n. c #9D30B9",
"m. c #A232BF",
"M. c #847B8C",
"N. c #A834C1",
"B. c #B439CD",
"V. c #B236C4",
"C. c #BE3DD6",
"Z. c #B73AD2",
"A. c #C43FDC",
"S. c #C740DF",
"D. c #C840E0",
"F. c None",
"G. c None",
"H. c None",
"J. c None",
"K. c None",
"L. c None",
"P. c None",
"I. c None",
"U. c None",
"Y. c None",
"T. c None",
"R. c None",
"E. c None",
"W. c None",
"Q. c None",
"!. c None",
"~. c None",
"^. c None",
"/. c None",
"(. c None",
/* pixels */
"(.(.(.^.^.^.^.^.^.^.^.^.^.^.^.^.^.^.^.^.^.^.^.^.^.^.^.^.^.(.(.(.",
"(.(.(.^.^.^.^.^.^.^.^.^.~.E.B s 4 4 3 Y.!.^.^.^.^.^.^.^.^.(.(.(.",
"(.(.(.^.^.^.^.^.^.^.^.~.E M k.m.m.m.x.A V Y.^.^.^.^.^.^.^.(.(.(.",
"(.(.(.^.^.^.^.^.^.^.^.R G b.S.S.S.S.A.B.x.K Y.^.^.^.^.^.^.(.(.(.",
"(.(.(.^.^.^.^.^.^.^.^.4 b.A.D.D.S.S.D.D.S.x.C E.^.^.^.^.^.(.(.(.",
"(.(.(.^.^.^.^.^.^.^.- h.A.A.D.A.S.S.D.D.S.Z.-.s ~.^.^.^.^.(.(.(.",
"(.(.(.^.^.^.^.^.^.^.- =.3 m N.Z.Z.V.B.D.S.D.N.-.- ^.^.^.^.(.(.(.",
"(.(.(.^.^.^.^.^.^.^.M.m S N ;.z.S -.D C.D.C.v.l.m L.^.^.^.(.(.(.",
"(.(.(.^.^.^.^.^.^.^.^.J.s s F ;.n D d c.n.v.l.h.H Z ^.^.^.(.(.(.",
"(.(.(.^.^.^.^.^.^.^.^.^.F.  O O s J 4 :.l.k.H H H Z ^.^.^.(.(.(.",
"(.(.(.^.^.^.^.^.^.^.^.^.G.` %   X O N F H H H J H Z ^.^.^.(.(.(.",
"(.(.(.^.^.^.^.^.^.^.^.P.Q     . 9     @ S H H J N M.^.^.^.(.(.(.",
"(.(.(.^.^.^.~.3.3.3.5.{ u +             ; n n n H.^.^.^.^.(.(.(.",
"(.(.(.^.^.^.b { @.@.[ +.z u O         l + L R.T.^.^.^.^.^.(.(.(.",
"(.(.(.^.^.^.E.& o = i w & < [ 7.7.$. .p } z 2 R.^.^.^.^.^.(.(.(.",
"(.(.(.^.^.^.^.^.^.^.7 7 7 : < e t < p  .t.u.&.e E.^.^.^.^.(.(.(.",
"(.(.(.^.^.^.^.^.^.^.^.^.^.W ..i.g.9.| ' ..*.y.w.u I.^.^.^.(.(.(.",
"(.(.(.^.^.^.^.^.^.^.^.^.^.Y = v q.t.,.' , 0 z o.%.v P.^.^.(.(.(.",
"(.(.(.^.^.^.^.^.^.^.^.^.^.U ^ - 5 ( <.O.i , o z s.y Q ^.^.(.(.(.",
"(.(.(.^.^.^.^.^.^.^.^.^.K.z # / ^ $ >.| } , + @.i 8 ^.^.^.(.(.(.",
"(.(.(.^.^.^.^.^.^.^.^./.4.@.=.^ 3 1.r.#.| x 2.U g ^.^.^.^.(.(.(.",
"(.(.(.^.^.^.^.^.^.^.^.W.k y.q.s *.s.t.r.| ] q R.^.^.^.^.^.(.(.(.",
"(.(.(.^.^.^.^.^.^.^.^.T { p._ 3 u.d.t.r.| | h I ^.^.^.^.^.(.(.(.",
"(.(.(.^.^.^.^.^.^.^./.< #.t.a.e ) u.r.r.| } } * /.^.^.^.^.(.(.(.",
"(.(.(.^.^.^.^.^.^.^.^.< #.r.d.g.r.r.r.| | |  .* ^.^.^.^.^.(.(.(.",
"(.(.(.^.^.^.^.^.^.^./.> j #.9.r.r.r.8.| | } j > ^.^.^.^.^.(.(.(.",
"(.(.(.^.^.^.^.^.^.^.^.~ r x  .%.r.6.| | c h p * /.^.^.^.^.(.(.(.",
"(.(.(.^.^.^.^.^.^.^.^.R.< *.e.h x c h h j +.x # /.^.^.^.^.(.(.(.",
"(.(.(.^.^.^.^.^.^.^.^.^.F.0  .9.d.f.t.8.6.] > U.^.^.^.^.^.(.(.(.",
"(.(.(.^.^.^.^.^.^.^.^.^.^.! 6 & w w w w f 6 K.^.^.^.^.^.^.(.(.(.",
"(.(.(.^.^.^.^.^.^.^.^.^.^.^.^.P P P P P ^.^.^.^.^.^.^.^.^.(.(.(.",
"(.(.(.(.(.(.(.(.(.(.(.(.(.(.(.(.(.(.(.(.(.(.(.(.(.(.(.(.(.(.(.(."
};
