/* XPM */
static char *_633337256032[] = {
/* columns rows colors chars-per-pixel */
"32 32 255 2 ",
"   c #000008",
".  c #000009",
"X  c #00000B",
"o  c #02010A",
"O  c #03010B",
"+  c #00010C",
"@  c #01010C",
"#  c #00010E",
"$  c #04040E",
"%  c #0F020C",
"&  c #020210",
"*  c #030211",
"=  c #010213",
"-  c #070210",
";  c #060211",
":  c #070211",
">  c #050512",
",  c #040215",
"<  c #05031A",
"1  c #050718",
"2  c #08041C",
"3  c #0B071F",
"4  c #241D0A",
"5  c #080522",
"6  c #0F0522",
"7  c #040B2C",
"8  c #1A0622",
"9  c #180828",
"0  c #000830",
"q  c #000831",
"w  c #020937",
"e  c #060A35",
"r  c #050A36",
"t  c #090F35",
"y  c #0F0E35",
"u  c #070939",
"i  c #21092C",
"p  c #22092D",
"a  c #26082C",
"s  c #230A31",
"d  c #2A0830",
"f  c #2D0933",
"g  c #340B39",
"h  c #2D2D35",
"j  c #58470C",
"k  c #655E25",
"l  c #070F49",
"z  c #050D4B",
"x  c #070D4C",
"c  c #0F1143",
"v  c #081347",
"b  c #010F56",
"n  c #0A0E53",
"m  c #0E0E55",
"M  c #130C50",
"N  c #140F58",
"B  c #130F5C",
"V  c #0F1059",
"C  c #161751",
"Z  c #350C40",
"A  c #360F41",
"S  c #350E42",
"D  c #3C0E45",
"F  c #361047",
"G  c #381245",
"H  c #392E46",
"J  c #180F62",
"K  c #051160",
"L  c #091267",
"P  c #0E136E",
"I  c #141060",
"U  c #151063",
"Y  c #1B1068",
"T  c #1B106B",
"R  c #101370",
"E  c #121475",
"W  c #131476",
"Q  c #141479",
"!  c #1A157F",
"~  c #271A7A",
"^  c #2B247D",
"/  c #410E48",
"(  c #50135B",
")  c #56135C",
"_  c #453851",
"`  c #5E1462",
"'  c #5A1769",
"]  c #55186B",
"[  c #571A70",
"{  c #521B75",
"}  c #5E1A73",
"|  c #631464",
" . c #6A156C",
".. c #6A166D",
"X. c #6E1774",
"o. c #701771",
"O. c #781878",
"+. c #781879",
"@. c #79197A",
"#. c #41227E",
"$. c #5E3074",
"%. c #68217C",
"&. c #4E4E55",
"*. c #505055",
"=. c #56555F",
"-. c #5A5A5E",
";. c #5A5A61",
":. c #5A5E73",
">. c #585C77",
",. c #64486C",
"<. c #6D5375",
"1. c #707074",
"2. c #707075",
"3. c #747478",
"4. c #AB111B",
"5. c #897E2D",
"6. c #1D1684",
"7. c #1D1686",
"8. c #1E1687",
"9. c #221480",
"0. c #231684",
"q. c #2E1686",
"w. c #22178D",
"e. c #24198B",
"r. c #30168C",
"t. c #271794",
"y. c #271897",
"u. c #281898",
"i. c #2C199D",
"p. c #2D199F",
"a. c #2E199F",
"s. c #2F1F9C",
"d. c #33228C",
"f. c #302996",
"g. c #3D249C",
"h. c #2F19A1",
"j. c #311AA5",
"k. c #361BAB",
"l. c #371BAD",
"z. c #3B1CB1",
"x. c #3B1CB2",
"c. c #352EA3",
"v. c #3F2BB6",
"b. c #7B1B82",
"n. c #7C1C86",
"m. c #7D1D88",
"M. c #7D1E89",
"N. c #7E1E88",
"B. c #433584",
"V. c #6F2382",
"C. c #6D2088",
"Z. c #6D2588",
"A. c #71218D",
"S. c #742290",
"D. c #762393",
"F. c #7A2397",
"G. c #411DBB",
"H. c #411DBC",
"J. c #421DBD",
"K. c #421FBC",
"L. c #4233A3",
"P. c #412BB9",
"I. c #7D7486",
"U. c #797A84",
"Y. c #75788D",
"T. c #461EC2",
"R. c #481EC5",
"E. c #4D1FCB",
"W. c #4E1FCA",
"Q. c #4C22C8",
"!. c #4D20CC",
"~. c #4F20CE",
"^. c #4F20CF",
"/. c #4932C3",
"(. c #4A3AC2",
"). c #5020D0",
"_. c #5122D1",
"`. c #572BD9",
"'. c #543AD3",
"]. c #5935D9",
"[. c #6037E4",
"{. c #623CE7",
"}. c #653FE9",
"|. c #6345E6",
" X c #6447E5",
".X c #6446E7",
"XX c #6844EE",
"oX c #694BE9",
"OX c #6C4EF2",
"+X c #6E4DF5",
"@X c #6E4FF5",
"#X c #6F4FF6",
"$X c #704EF4",
"%X c #704FF7",
"&X c #7050F8",
"*X c #80208F",
"=X c #85259E",
"-X c #85259F",
";X c #86249E",
":X c #902499",
">X c #8626A4",
",X c #8227A9",
"<X c #8828A8",
"1X c #8A29AA",
"2X c #902CAF",
"3X c #922CB1",
"4X c #9A2EB7",
"5X c #9B2FB8",
"6X c #9B2FB9",
"7X c #9C2FB9",
"8X c #9D30BA",
"9X c #9E30BB",
"0X c #B137CC",
"qX c #B93AD3",
"wX c #BF3DD8",
"eX c #C03DD9",
"rX c #C13EDB",
"tX c #C740DF",
"yX c #C840E0",
"uX c #838388",
"iX c #8C8394",
"pX c #908898",
"aX c None",
"sX c None",
"dX c None",
"fX c None",
"gX c None",
"hX c None",
"jX c None",
"kX c None",
"lX c None",
"zX c None",
"xX c None",
"cX c None",
"vX c None",
"bX c None",
"nX c None",
"mX c None",
"MX c None",
"NX c None",
"BX c None",
"VX c None",
"CX c None",
"ZX c None",
"AX c None",
"SX c None",
"DX c None",
"FX c None",
"GX c None",
"HX c None",
"JX c None",
"KX c None",
"LX c None",
"PX c None",
"IX c None",
/* pixels */
"IXIXIXIXIXIXPXPXPXPXPXPXPXPXPXPXPXPXPXPXPXPXPXPXPXIXIXIXIXIXIXIX",
"IXIXIXIXIXIXPXPXPXPXPXPXfX_ _ _ _ _ PXPXPXPXPXPXPXIXIXIXIXIXIXIX",
"IXIXIXIXIXIXPXPXPXPXnXG ' 7XrXyX6X:XF jXPXPXPXPXPXIXIXIXIXIXIXIX",
"IXIXIXIXIXIXPXPXPXGX$.;XqXrXyXyXyXyX>XA.iXPXPXPXPXIXIXIXIXIXIXIX",
"IXIXIXIXIXIXPXPXmXS 2XyXyXyXwXyXyX8Xp F.} bXPXPXPXIXIXIXIXIXIXIX",
"IXIXIXIXIXIXPXPXI.>XrXrX0XG V.8XyX8Xs s ) bXPXPXPXIXIXIXIXIXIXIX",
"IXIXIXIXIXIXPXZX( 1XrXtX%.4.o.b.<X>X*XO.) bXPXPXPXIXIXIXIXIXIXIX",
"IXIXIXIXIXIXPXZX] <X3X8XS.a D.n.n.O.` g ,.SXPXPXPXIXIXIXIXIXIXIX",
"IXIXIXIXIXIXPXZX] <X<X<X=XO.o.| / X   H PXPXPXPXPXIXIXIXIXIXIXIX",
"IXIXIXIXIXIXPXJX<.M.<XM.O.d 8 X     k mXPXPXPXPXPXIXIXIXIXIXIXIX",
"IXIXIXIXIXIXPXPXpX .O. .g       5.  j mXPXPXPXPXPXIXIXIXIXIXIXIX",
"IXIXIXIXIXIXPXPXPXgXD 9       X 4   X mXPXPXPXPXPXIXIXIXIXIXIXIX",
"IXIXIXIXIXIXPXPXPXPXPXmXw r # X X 2 B < PXPXPXPXPXIXIXIXIXIXIXIX",
"IXIXIXIXIXIXPXPXPXPXPX$ I R 0.r.L.e.6.J sXPXPXPXPXIXIXIXIXIXIXIX",
"IXIXIXIXIXIXPXPXPXPXPX> x.u.z r l W.P.R.>.PXPXPXPXIXIXIXIXIXIXIX",
"IXIXIXIXIXIXPXPXPXPXkXq.7.y.T.).XX%X'.Q g.vXPXPXPXIXIXIXIXIXIXIX",
"IXIXIXIXIXIXPXPXPXPXY.OX0 t.).!.N |.f N v.C HXPXPXIXIXIXIXIXIXIX",
"IXIXIXIXIXIXPXPXPXSXd.c.7 x.).6 C.$ : 3.u f.B.VXPXIXIXIXIXIXIXIX",
"IXIXIXIXIXIXPXPXPXt /.b M ^.).,XX X { MXKXh < cXPXIXIXIXIXIXIXIX",
"IXIXIXIXIXIXPXPXzXI n # 8.E.`.[.#.: ^ y PXPXPXPXPXIXIXIXIXIXIXIX",
"IXIXIXIXIXIXPXPX1.# uX7 u.^.$X&X$X3 @Xc PXPXPXPXPXIXIXIXIXIXIXIX",
"IXIXIXIXIXIXPXPXPXPXU.E u.^.XX&XZ.% (.s.lXPXPXPXPXIXIXIXIXIXIXIX",
"IXIXIXIXIXIXPXPXPXFXv y.^.^.).@X$XoX}.).:.PXPXPXPXIXIXIXIXIXIXIX",
"IXIXIXIXIXIXPXPXPXSXU E.).).).).{.{.).H.:.PXPXPXPXIXIXIXIXIXIXIX",
"IXIXIXIXIXIXPXPXPXAXI ).).).^.).).).).a.;.PXPXPXPXIXIXIXIXIXIXIX",
"IXIXIXIXIXIXPXPXPXaXx u.H.^.^.^.).H.l.Y sXPXPXPXPXIXIXIXIXIXIXIX",
"IXIXIXIXIXIXPXPXPX= W K K a.a.a.h.L K = 2.PXPXPXPXIXIXIXIXIXIXIX",
"IXIXIXIXIXIXPXPXPX=.9.k.w.P P P P ! P.H.-.PXPXPXPXIXIXIXIXIXIXIX",
"IXIXIXIXIXIXPXPXPXAX, h.W.|..X.X].j.~ 5 BXPXPXPXPXIXIXIXIXIXIXIX",
"IXIXIXIXIXIXPXPXPXPXhX&.m T T T T = *.CXPXPXPXPXPXIXIXIXIXIXIXIX",
"IXIXIXIXIXIXPXPXPXPXPXPXxXxXxXxXxXxXPXPXPXPXPXPXPXIXIXIXIXIXIXIX",
"IXIXIXIXIXIXIXIXIXIXIXIXIXIXIXIXIXIXIXIXIXIXIXIXIXIXIXIXIXIXIXIX"
};
