/* XPM */
static char *_633337308019[] = {
/* columns rows colors chars-per-pixel */
"32 32 158 2 ",
"   c #000009",
".  c #10020D",
"X  c #040212",
"o  c #080211",
"O  c #050519",
"+  c #08041C",
"@  c #241D0A",
"#  c #0B0820",
"$  c #060828",
"%  c #180828",
"&  c #150623",
"*  c #030934",
"=  c #080C37",
"-  c #100E36",
";  c #23092C",
":  c #2C0931",
">  c #230A31",
",  c #340B39",
"<  c #2F2F36",
"1  c #58480C",
"2  c #665F26",
"3  c #060E4A",
"4  c #130C4F",
"5  c #081446",
"6  c #101244",
"7  c #010F56",
"8  c #0C0E54",
"9  c #140F5A",
"0  c #101059",
"q  c #171753",
"w  c #350E41",
"e  c #3C0E45",
"r  c #361047",
"t  c #381245",
"y  c #392E45",
"u  c #180F62",
"i  c #051160",
"p  c #0E136E",
"a  c #0A1267",
"s  c #151061",
"d  c #1B106A",
"f  c #121474",
"g  c #17157C",
"h  c #281A7B",
"j  c #2B237C",
"k  c #410E48",
"l  c #4F135A",
"z  c #57135D",
"x  c #453851",
"c  c #55196D",
"v  c #5D1666",
"b  c #581B75",
"n  c #6A166D",
"m  c #631464",
"M  c #6E1773",
"N  c #701771",
"B  c #781879",
"V  c #41227E",
"C  c #5E3073",
"Z  c #69217D",
"A  c #4E4E55",
"S  c #505055",
"D  c #56565F",
"F  c #58585E",
"G  c #585D72",
"H  c #575A76",
"J  c #63476B",
"K  c #6E5376",
"L  c #6F6F73",
"P  c #727277",
"I  c #AB111A",
"U  c #8A802D",
"Y  c #1D1686",
"T  c #221582",
"R  c #27188A",
"E  c #30168C",
"W  c #271897",
"Q  c #2B199B",
"!  c #271793",
"~  c #32228B",
"^  c #302895",
"/  c #3E249D",
"(  c #2F19A0",
")  c #371BAC",
"_  c #311AA5",
"`  c #3B1CB2",
"'  c #352EA3",
"]  c #3F2AB6",
"[  c #7C1C84",
"{  c #7D1D88",
"}  c #423584",
"|  c #6D2389",
" . c #6E2381",
".. c #71218D",
"X. c #752392",
"o. c #7A2396",
"O. c #421EBC",
"+. c #4233A3",
"@. c #412BB9",
"#. c #7E7587",
"$. c #77798E",
"%. c #7A7B85",
"&. c #4E1FCB",
"*. c #471EC3",
"=. c #4E20CD",
"-. c #4A36C3",
";. c #5020D0",
":. c #572BD9",
">. c #5738D7",
",. c #6037E4",
"<. c #623CE7",
"1. c #653FE9",
"2. c #6446E6",
"3. c #6844EE",
"4. c #694BE9",
"5. c #6E4EF5",
"6. c #704FF6",
"7. c #7050F8",
"8. c #80208F",
"9. c #85259E",
"0. c #902499",
"q. c #8828A8",
"w. c #8427A7",
"e. c #902CAF",
"r. c #9B2FB9",
"t. c #962DB4",
"y. c #9E30BB",
"u. c #B137CC",
"i. c #BF3DD8",
"p. c #B93AD3",
"a. c #C13EDA",
"s. c #C740DF",
"d. c #C840E0",
"f. c #818186",
"g. c #8B8293",
"h. c None",
"j. c None",
"k. c None",
"l. c None",
"z. c None",
"x. c None",
"c. c None",
"v. c None",
"b. c None",
"n. c None",
"m. c None",
"M. c None",
"N. c None",
"B. c None",
"V. c None",
"C. c None",
"Z. c None",
"A. c None",
"S. c None",
"D. c None",
"F. c None",
"G. c None",
"H. c None",
/* pixels */
"H.H.H.H.H.H.H.G.G.G.G.G.G.G.G.G.G.G.G.G.G.G.G.G.G.G.H.H.H.H.H.H.",
"H.H.H.H.H.H.H.G.G.G.G.G.G.G.x x x x x l.G.G.G.G.G.G.H.H.H.H.H.H.",
"H.H.H.H.H.H.H.G.G.G.G.G.z.r 0.r.d.d.r.v w N.G.G.G.G.H.H.H.H.H.H.",
"H.H.H.H.H.H.H.G.G.G.G.g...w.s.s.d.d.s.p.9.C D.G.G.G.H.H.H.H.H.H.",
"H.H.H.H.H.H.H.G.G.G.M.b o.; y.s.d.i.s.s.s.e., V.G.G.H.H.H.H.H.H.",
"H.H.H.H.H.H.H.G.G.G.M.z > ; y.s.r. .t u.s.a.9.#.G.G.H.H.H.H.H.H.",
"H.H.H.H.H.H.H.G.G.G.B.v B 8.9.q.[ M I Z d.a.q.z Z.G.H.H.H.H.H.H.",
"H.H.H.H.H.H.H.G.G.G.S.J , m B [ { X.; X.r.e.q.b Z.G.H.H.H.H.H.H.",
"H.H.H.H.H.H.H.G.G.G.G.G.y     k m N B 9.q.q.q.c Z.G.H.H.H.H.H.H.",
"H.H.H.H.H.H.H.G.G.G.G.G.N.2       & : B { q.{ K F.G.H.H.H.H.H.H.",
"H.H.H.H.H.H.H.G.G.G.G.G.N.1   U       , n B n h.G.G.H.H.H.H.H.H.",
"H.H.H.H.H.H.H.G.G.G.G.G.N.    @         % e l.G.G.G.H.H.H.H.H.H.",
"H.H.H.H.H.H.H.G.G.G.G.G.O 9 O       * * C.G.G.G.G.G.H.H.H.H.H.H.",
"H.H.H.H.H.H.H.G.G.G.G.k.u Y R +.E h f s   G.G.G.G.G.H.H.H.H.H.H.",
"H.H.H.H.H.H.H.G.G.G.G.H *.` =.3 * 3 W `   G.G.G.G.G.H.H.H.H.H.H.",
"H.H.H.H.H.H.H.G.G.G.B./ g >.7.3.;.*.W Y E v.G.G.G.G.H.H.H.H.H.H.",
"H.H.H.H.H.H.H.G.G.D.q ] 0 : 2.q &.;.W * 5.$.G.G.G.G.H.H.H.H.H.H.",
"H.H.H.H.H.H.H.G.A.} ^ * P o o | & ;.) * ' ~ S.G.G.G.H.H.H.H.H.H.",
"H.H.H.H.H.H.H.G.m.O < G.V.b     w.;.&.4 7 -.= G.G.G.H.H.H.H.H.H.",
"H.H.H.H.H.H.H.G.G.G.G.G.= j o V ,.:.;.Y   8 0 b.G.G.H.H.H.H.H.H.",
"H.H.H.H.H.H.H.G.G.G.G.G.6 5.+ 7.7.7.;.W * f.  P G.G.H.H.H.H.H.H.",
"H.H.H.H.H.H.H.G.G.G.G.c.( -.. | 7.3.;.W f %.G.G.G.G.H.H.H.H.H.H.",
"H.H.H.H.H.H.H.G.G.G.G.G ;.1.4.6.5.;.;.&.W 5 D.G.G.G.H.H.H.H.H.H.",
"H.H.H.H.H.H.H.G.G.G.G.G O.;.<.<.;.;.;.;.=.s S.G.G.G.H.H.H.H.H.H.",
"H.H.H.H.H.H.H.G.G.G.G.F Q ;.;.;.;.;.;.;.;.s S.G.G.G.H.H.H.H.H.H.",
"H.H.H.H.H.H.H.G.G.G.G.j.d ) O.;.;.;.&.O.W 3 j.G.G.G.H.H.H.H.H.H.",
"H.H.H.H.H.H.H.G.G.G.G.L X i a Q ( ( Q i i g X G.G.G.H.H.H.H.H.H.",
"H.H.H.H.H.H.H.G.G.G.G.D O.@.Y p p p f R ) g D G.G.G.H.H.H.H.H.H.",
"H.H.H.H.H.H.H.G.G.G.G.C.$ h ) >.2.2.2.&.( X S.G.G.G.H.H.H.H.H.H.",
"H.H.H.H.H.H.H.G.G.G.G.G.C.A X d d d d 8 A x.G.G.G.G.H.H.H.H.H.H.",
"H.H.H.H.H.H.H.G.G.G.G.G.G.G.n.n.n.n.n.n.G.G.G.G.G.G.H.H.H.H.H.H.",
"H.H.H.H.H.H.H.H.H.H.H.H.H.H.H.H.H.H.H.H.H.H.H.H.H.H.H.H.H.H.H.H."
};
