/* XPM */
static char *_633333628858[] = {
/* columns rows colors chars-per-pixel */
"32 32 203 2 ",
"   c #03030B",
".  c #050310",
"X  c #060511",
"o  c #000214",
"O  c #090911",
"+  c #080A1A",
"@  c #13121E",
"#  c #000623",
"$  c #00082F",
"%  c #1F092E",
"&  c #09112F",
"*  c #171720",
"=  c #1A1A26",
"-  c #0F0B3D",
";  c #0B1334",
":  c #131935",
">  c #121A39",
",  c #13193B",
"<  c #20112F",
"1  c #1B223F",
"2  c #2C2C32",
"3  c #37373D",
"4  c #0E0A40",
"5  c #0B0D4C",
"6  c #120B49",
"7  c #071242",
"8  c #130E55",
"9  c #1A0C53",
"0  c #110F59",
"q  c #011054",
"w  c #001057",
"e  c #001059",
"r  c #011059",
"t  c #01105B",
"y  c #081059",
"u  c #0A185F",
"i  c #1C1457",
"p  c #350E45",
"a  c #3D0E47",
"s  c #3E0F4A",
"d  c #37104B",
"f  c #362043",
"g  c #1E0F62",
"h  c #061262",
"j  c #091266",
"k  c #0F1165",
"l  c #0E126A",
"z  c #0F126A",
"x  c #0F136E",
"c  c #10136E",
"v  c #111474",
"b  c #141477",
"n  c #141478",
"m  c #17147D",
"M  c #250F66",
"N  c #241061",
"B  c #312372",
"V  c #31267D",
"C  c #431D4D",
"Z  c #4B1152",
"A  c #431459",
"S  c #501157",
"D  c #5D1A72",
"F  c #6E1670",
"G  c #741875",
"H  c #771877",
"J  c #711B7E",
"K  c #781878",
"L  c #781879",
"P  c #79197B",
"I  c #7A1A7D",
"U  c #4F425B",
"Y  c #50445C",
"T  c #5B4F66",
"R  c #525566",
"E  c #5E5C75",
"W  c #5C5579",
"Q  c #674870",
"!  c #78787B",
"~  c #1D1687",
"^  c #221582",
"/  c #221588",
"(  c #221589",
")  c #241689",
"_  c #23178C",
"`  c #23178D",
"'  c #22178E",
"]  c #231791",
"[  c #261794",
"{  c #261893",
"}  c #261894",
"|  c #261895",
" . c #271896",
".. c #281897",
"X. c #2C1897",
"o. c #281898",
"O. c #281899",
"+. c #29189A",
"@. c #2B189A",
"#. c #2A199A",
"$. c #2A189B",
"%. c #311F99",
"&. c #342B84",
"*. c #2E19A1",
"=. c #301AA3",
"-. c #321AA4",
";. c #331AA4",
":. c #321AA6",
">. c #371BAD",
",. c #381BAE",
"<. c #3B1CB2",
"1. c #3B1CB3",
"2. c #3D2CA4",
"3. c #3B28AF",
"4. c #3E30B2",
"5. c #7C1C84",
"6. c #70228D",
"7. c #7A2293",
"8. c #471DBD",
"9. c #4638BC",
"0. c #471EC3",
"q. c #4A1FC4",
"w. c #4A1FC8",
"e. c #4D1FCC",
"r. c #4F20CE",
"t. c #4F20CF",
"y. c #5020CF",
"u. c #5020D0",
"i. c #5021D0",
"p. c #5121D1",
"a. c #5222D2",
"s. c #512CD0",
"d. c #5E37DE",
"f. c #5E36E1",
"g. c #6038E4",
"h. c #6641EB",
"j. c #6742EC",
"k. c #6845EE",
"l. c #6C4EF3",
"z. c #6D4BF4",
"x. c #6D4CF4",
"c. c #6F4FF7",
"v. c #7050F8",
"b. c #80208F",
"n. c #812193",
"m. c #822296",
"M. c #8E2395",
"N. c #8626A4",
"B. c #8727A4",
"V. c #8828A7",
"C. c #8828A8",
"Z. c #8928A9",
"A. c #8C2AAC",
"S. c #8F2BAE",
"D. c #9328A4",
"F. c #922CB1",
"G. c #992FB6",
"H. c #9A2EB8",
"J. c #A232BF",
"K. c #85738C",
"L. c #857D8E",
"P. c #A834C4",
"I. c #B939CF",
"U. c #B739D0",
"Y. c #BD3CD6",
"T. c #C13DDA",
"R. c #C640DF",
"E. c #C740DF",
"W. c #C840E0",
"Q. c #838387",
"!. c #858589",
"~. c #8B8B8F",
"^. c #848897",
"/. c #8B8D95",
"(. c #8B8F9E",
"). c #968F9E",
"_. c #96969A",
"`. c #9C9C9F",
"'. c #8E92A0",
"]. c #969AA6",
"[. c #999CA9",
"{. c #A59FAC",
"}. c #A4A4A7",
"|. c #A5A5A8",
" X c #A7A7AA",
".X c #A7A1AE",
"XX c #ADADB0",
"oX c #BBB6BF",
"OX c #BEB9C3",
"+X c #C5C7CE",
"@X c #CCCDD4",
"#X c #D5D5D6",
"$X c #E4E1E6",
"%X c #E8E6EA",
"&X c #EEECEF",
"*X c #F6F5F7",
"=X c gray97",
"-X c #F8F8F8",
";X c #F8F8F9",
":X c gray98",
">X c #FBFBFC",
",X c white",
"<X c None",
/* pixels */
"<X<X<X<X<X<X<X<X<X<X<X<X<X<X<X<X<X<X<X<X<X<X<X<X<X<X<X<X<X<X<X<X",
"<X<X<X<X<X<X<X<X<X<X<X<X<X<X<X<XY U U U <X<X<X<X<X<X<X<X<X<X<X<X",
"<X<X<X<X<X<X<X<X<X<X<X<X<X<X<Xp M.H.H.D.d K.<X<X<X<X<X<X<X<X<X<X",
"<X<X<X<X<X<X<X<X<X<X<X<X<X<X6.I.W.W.W.W.U.J T <X<X<X<X<X<X<X<X<X",
"<X<X<X<X<X<X<X<X<X<X<X<X<XD W.W.W.W.W.W.W.J.C <X<X<X<X<X<X<X<X<X",
"<X<X<X<X<X<X<X<X<X<X<X<X< V.W.W.W.W.W.W.W.T.7.<X<X<X<X<X<X<X<X<X",
"<X<X<X<X<X<X<X<X<X<X<X<XG V.W.W.W.W.W.W.W.W.C.A <X<X<X<X<X<X<X<X",
"<X<X<X<X<X<X<X<X<X<X<X<XG V.W.T.W.W.W.W.W.W.B.s <X<X<X<X<X<X<X<X",
"<X<X<X<X<X<X<X<X<X<X<X<XG n.V.Y.W.W.W.W.E.G.n.a <X<X<X<X<X<X<X<X",
"<X<X<X<X<X<X<X<X<X<X<X<XG P V.A.F.W.W.P.S.V.K a <X<X<X<X<X<X<X<X",
"<X<X<X<X<X<X<X<X<X<X<X<X< K K m.C.C.C.C.V.5.F <X<X<X<X<X<X<X<X<X",
"<X<X<X<X<X<X<X<X<X<X<X<X<XZ K K I I I I K K f <X<X<X<X<X<X<X<X<X",
"<X<X<X<X<X<X<X<X<X<X<X<X<XW - S K K K K S Q L.<X<X<X<X<X<X<X<X<X",
"<X<X<X<X<X<X<X<X<X<X<X<X1 M { q % % % % <X<X: <X<X<X<X<X<X<X<X<X",
"<X<X<X<X<X<X<X<X<X<X<X<X&.s.t +.` ` v @.N V ) <X<X<X<X<X<X<X<X<X",
"<X<X<X<X<X<X<X<X*<X.; 7 l.+.t b +.+. .m y.y.= <X<X<X<X<X<X<X<X<X",
"<X<X<X<X<X<X<X<XQ.g d.4.r.5 t ~ +.<...y i ! <X<X<X<X<X<X<X<X<X<X",
"<X<X<X<X<X<X<X<X<X<X@<X   $  .O.+.p.e.0 <X<X<X<X<X<X<X<X<X<X<X<X",
"<X<X<X<X<X<X<X<X<X<X<X<X!.8  .;.y.k.f.9 <X<X<X<X<X<X<X<X<X<X<X<X",
"<X<X<X<X<X<X<X<X<X<X<X<XO n +.p.c.v.v.B <X<X<X<X<X<X<X<X<X<X<X<X",
"<X<X<X<X<X<X<X<X<X<X<X<X& +.r.g.v.v.v.2.<X<X<X<X<X<X<X<X<X<X<X<X",
"<X<X<X<X<X<X<X<X<X<X<X<Xu 1.p.c.v.v.v.v.> <X<X<X<X<X<X<X<X<X<X<X",
"<X<X<X<X<X<X<X<X<X<X<X<X .0.p.v.v.v.v.v.%.<X<X<X<X<X<X<X<X<X<X<X",
"<X<X<X<X<X<X<X<X<X<X<X<X[ u.p.v.v.v.v.v.q.<X<X<X<X<X<X<X<X<X<X<X",
"<X<X<X<X<X<X<X<X<X<X<X<X{ p.p.j.v.v.v.h.q.<X<X<X<X<X<X<X<X<X<X<X",
"<X<X<X<X<X<X<X<X<X<X<X~<X <.e.p.z.x.y.y.8.<X<X<X<X<X<X<X<X<X<X<X",
"<X<X<X<X<X<X<X<X<X<X<X3 c ;.u.r.p.e.r.,.l <X<X<X<X<X<X<X<X<X<X<X",
"<X<X<X<X<X<X<X<X<X<X<X6 w.j t ] ] ] t h ..4 <X<X<X<X<X<X<X<X<X<X",
"<X<X<X<X<X<X<X<X<X<X<XE c ,.;.9.9.3.;.*.l o <X<X<X<X<X<X<X<X<X<X",
"<X<X<X<X<X<X<X<X<X<X<X<X2 , ^ / ] ' / k   <X<X<X<X<X<X<X<X<X<X<X",
"<X<X<X<X<X<X<X<X<X<X<X<X<X<X<XR # # + <X<X<X<X<X<X<X<X<X<X<X<X<X",
"<X<X<X<X<X<X<X<X<X<X<X<X<X<X<X<X<X<X<X<X<X<X<X<X<X<X<X<X<X<X<X<X"
};
