/* XPM */
static char *_632911209025[] = {
/* columns rows colors chars-per-pixel */
"32 32 212 2 ",
"   c #14181B",
".  c #181B1C",
"X  c #2D230E",
"o  c #2D2618",
"O  c #312714",
"+  c #332915",
"@  c #3D2E11",
"#  c #332C1C",
"$  c #1B2020",
"%  c #252723",
"&  c #2A2B24",
"*  c #332D21",
"=  c #2F3128",
"-  c #343126",
";  c #3C3625",
":  c #34352A",
">  c #3B3729",
",  c #3C3A2D",
"<  c #493614",
"1  c #4F3B18",
"2  c #543D17",
"3  c #543E1A",
"4  c #493C23",
"5  c #423D2E",
"6  c #433F31",
"7  c #5E461F",
"8  c #60471F",
"9  c #4C442D",
"0  c #54472A",
"q  c #444232",
"w  c #4A4434",
"e  c #4D4A35",
"r  c #4B4639",
"t  c #4D4C3A",
"y  c #524D35",
"u  c #5A4B30",
"i  c #524C3C",
"p  c #5C5439",
"a  c #5C563A",
"s  c #644A23",
"d  c #684E27",
"f  c #6B532A",
"g  c #715326",
"h  c #72552A",
"j  c #74592B",
"k  c #7B5C2B",
"l  c #604F33",
"z  c #6A5836",
"x  c #625A3D",
"c  c #755E34",
"v  c #76652F",
"b  c #7E612C",
"n  c #676C33",
"m  c #7D6234",
"M  c #7B643D",
"N  c #7A7A39",
"B  c #5B5343",
"V  c #5A5741",
"C  c #5F5849",
"Z  c #615640",
"A  c #655C47",
"S  c #635B4A",
"D  c #685F4A",
"F  c #6B6343",
"G  c #6A614C",
"H  c #786848",
"J  c #6A6456",
"K  c #6C6554",
"L  c #746B56",
"P  c #746D5D",
"I  c #7A725D",
"U  c #746F62",
"Y  c #767163",
"T  c #7B7465",
"R  c #7D7869",
"E  c #825F2B",
"W  c #86642E",
"Q  c #836332",
"!  c #856B32",
"~  c #8B6A35",
"^  c #85693C",
"/  c #8C6D3A",
"(  c #916F37",
")  c #807335",
"_  c #8E7138",
"`  c #94743B",
"'  c #99763B",
"]  c #96783E",
"[  c #9B793D",
"{  c #866D41",
"}  c #887448",
"|  c #9C7C42",
" . c #967A4A",
".. c #87765A",
"X. c #A17E42",
"o. c #8C7E65",
"O. c #837C6B",
"+. c #837F71",
"@. c #75843E",
"#. c #7C833C",
"$. c #77893E",
"%. c #698841",
"&. c #798943",
"*. c #6C9747",
"=. c #6B9946",
"-. c #739549",
";. c #719B4A",
":. c #7B9852",
">. c #75A14E",
",. c #78A64D",
"<. c #76BA4F",
"1. c #74B553",
"2. c #79B556",
"3. c #75BA53",
"4. c #7BBC55",
"5. c #77BB58",
"6. c #7CBC59",
"7. c #7EC156",
"8. c #7FC159",
"9. c #83833B",
"0. c #8C8A44",
"q. c #948D46",
"w. c #9B8748",
"e. c #808B51",
"r. c #9E8953",
"t. c #879856",
"y. c #9A9755",
"u. c #9E9952",
"i. c #A28146",
"p. c #A4844B",
"a. c #A8874D",
"s. c #A38A4C",
"d. c #AA894E",
"f. c #A58651",
"g. c #AD8D54",
"h. c #AC8F5A",
"j. c #AF9157",
"k. c #A19A52",
"l. c #AC975B",
"z. c #B19157",
"x. c #B3955C",
"c. c #B8995F",
"v. c #8CA751",
"b. c #82BE53",
"n. c #87B75E",
"m. c #82BC5B",
"M. c #8A826D",
"N. c #988768",
"B. c #868173",
"V. c #8A8475",
"C. c #8B8679",
"Z. c #928C7D",
"A. c #98927E",
"S. c #A48F67",
"D. c #AE9965",
"F. c #B89760",
"G. c #B69B63",
"H. c #BB9C64",
"J. c #BD9E69",
"K. c #A7987A",
"L. c #85BC60",
"P. c #8ABD63",
"I. c #A4A163",
"U. c #B4A367",
"Y. c #BEA166",
"T. c #BEA26B",
"R. c #B8A873",
"E. c #C1A46D",
"W. c #C5A96F",
"Q. c #C2A670",
"!. c #C6AA73",
"~. c #C9AD76",
"^. c #CBB177",
"/. c #CEB37A",
"(. c #D0B67D",
"). c #83C456",
"_. c #88C957",
"`. c #84C35B",
"'. c #8BC45D",
"]. c #8CCA5B",
"[. c #93CC5D",
"{. c #94D158",
"}. c #8DC261",
"|. c #8DC960",
" X c #92C361",
".X c #93CC61",
"XX c #938D80",
"oX c #9A9484",
"OX c #9A968A",
"+X c #9F9C91",
"@X c #A59B84",
"#X c #A99E86",
"$X c #A29E93",
"%X c #ADA189",
"&X c #B8A989",
"*X c #ABA594",
"=X c #B1AB9C",
"-X c #BFB292",
";X c #B6B09F",
":X c #BDB49E",
">X c #B7B1A2",
",X c #BAB4A4",
"<X c #BEB9AD",
"1X c #C7B487",
"2X c #D2B780",
"3X c #D4BC83",
"4X c #C0B599",
"5X c #C3BAA8",
"6X c #C4BEB3",
"7X c #DAC186",
"8X c #DBC58A",
"9X c #CDC7BD",
/* pixels */
"[.6.6.4.`.{.{.).;.U.R.-.;.e.~.!.R.:.~.R.t.t.~.~.U.,.3.`.`.5.5.].",
"|.6.2.6.'.&.@.&.w.T.W.s.k.T.~.!.Q.D.~.E.l.l.~.Q.p.q.$.=.`.6.3.).",
"'.6.5.m.I./.G.s.z.H.^.H.g.J.T.Q.~.J.H.x.E.H.J.W.G.x.!.R.>.7.3.8.",
"6.5.`.t.^.3XE.[ a.p.T.j.X.X.p.g.G.X.| | z.p.a.x.g.h.(.(.I.=.3.`.",
"6.`.'.y./.J.g.E ! ( | } Q Q ! } ..M m j _ Q ! [ ` [ c.W.T.0.3.8.",
"6.}.P.r.J.s.[ s h f z Z x F x V V p p G a a p z h b s.j.x.q.3.3.",
"6.P.P.H.!.f.W 7 H ....Z.M.t t t t q q t q q q q 0 g ] H.W.k.`.3.",
"L.P.}.E.8X/.g.u S.:X9X9X*X= : , q = . % $       - m W.7X(.u._.7.",
"P.P. XD.3XW.h.4 Z G L I I , w w w w q , : %   & - ^ E.(.W.u.4.].",
"}.P.n.j.J.X.` x o...M.A.G y y p t y p p e q : , y / c.J.g.u.<._.",
"}.}.n.x.c.X.! H N.M.@X*XK B R V.Z.oXOXOXB.t , q 9 j i.a.| u.4.3.",
"|.`.n.E.3X~.p.{ N.oX@X=XD S +.OX+X*X$X+XC.t - : ; j c.E.j.k._.3.",
"].m.m.T.8X^.H.^ S.*X*X<XA * 6 i B t i i r , % : 9 k F.H.s.u.].).",
"].).).x.3XY.g.} K.@X=X>XA > 5 i C C C B B , & > 5 / z.g.q.'.|.'.",
")._.b.a.J.g.p. .K.%X>X<XD w B K P L T R J % . & 4 h ` x.w.v..X].",
").].b.z.x.' W z R.%X;X>XD w B K P O.O.B.U 6 6 & # d w.Q.l.v..X[.",
"6.].b.H.W.d.E l %X-X,X<XD 6 B J P O.O.O.T 6 B o + f x.Q.x.k.m.'.",
"4.m.4.E.8X2Xz.l &X1X5X<XD 6 B J T B.O.O.U - $ X @ f F.E.g.k.6.].",
"5.6.m.E.8X2Xc.H #X1X4X<XG i B J O.V.Z.V.T , # X @ c x.J.g.k.).).",
").6.2.E.8X(.J. .#X&X:X5XD i B U T O.V.Z.T 5 5 + < g ` ' ` k.].4.",
"7.6.1.f.~.z.i.H @X;X>X6XG i Z Y O.B.C.C.Y q > + 1 ^ H.W.z.k.[.3.",
")._.m.g.F.X./ 3 o.5X5X6XG 6 S ..M.V.C.C.T 6 , O 1 ~ c.H.d.k._.4.",
"7.].'.x.c.X.~ h H K.>X6XS 6 S Y V.B.C.B.U , > O < W J.T.g.u._.).",
"4._.[.E.3X(.x.k s ..%X,XS i S U B.B.C.B.U 6 , O 3 k g.g.[ q._.).",
"7.7.`.r./.x.d.Q s z N.5XD i B U +.+.C.+.T 5 5 o @ f / F.X.q.'._.",
"_.`.2.g.G.i.` d 3 s c o.D 6 B U +.Z.XXB.Y 5 5 + 2 Q j.E.x.k.'._.",
"}.5.1.p./ k E 8 1 h Q f. .d f { { {  .G.S./ } 3 2 ^ J.E.z.k._.'.",
"5.}.4.g.` | c.J.X.j.E.~./.X.| J.j.x.Q./.(.~.E.` ~ X.J.E.d.k.'.'.",
"4.m.4.g.a.J.(.~.g.!./.~.Q.d.x.^.J.~.2X~.^.(.E.d.H.^.E.g.i.u.}.}.",
"`.m.m.| ! g.E.z./ x.E.E.g.~ g.J.| H.J.E.G.E.j.` g.J.z.! %.5.}.P.",
".X'.n.@.k ! ` [ b _ w.' / W ! | Q ( X.| _ ] _ b ! ` ' v *.5.5.L.",
".X'.'.n.,.-.n W n =.9.N =.,.;.N N *.0.N =.#.N >.;.@.N #.6.4.5.L."
};
