/* XPM */
static char *_632810818363[] = {
/* columns rows colors chars-per-pixel */
"32 32 189 2 ",
"   c #0F1419",
".  c #101519",
"X  c #151A1B",
"o  c #2D220E",
"O  c #3D2D0F",
"+  c #35270D",
"@  c #2B2416",
"#  c #292519",
"$  c #322A19",
"%  c #302715",
"&  c #222622",
"*  c #2B2C25",
"=  c #252822",
"-  c #322D21",
";  c #343327",
":  c #323329",
">  c #3C3A2D",
",  c #3A3426",
"<  c #3E3E30",
"1  c #42310F",
"2  c #443312",
"3  c #4C3819",
"4  c #543E1B",
"5  c #413B2D",
"6  c #433E30",
"7  c #5C441D",
"8  c #56411D",
"9  c #644A1F",
"0  c #60461D",
"q  c #43422F",
"w  c #5F4520",
"e  c #55452A",
"r  c #5E4B29",
"t  c #444232",
"y  c #4A4534",
"u  c #4C4936",
"i  c #4D4739",
"p  c #4F4D3A",
"a  c #524D36",
"s  c #524B3B",
"d  c #594F39",
"f  c #5D5437",
"g  c #57513C",
"h  c #5C563B",
"j  c #5D593D",
"k  c #634A24",
"l  c #6C4E23",
"z  c #604928",
"x  c #624721",
"c  c #6E5225",
"v  c #6D532A",
"b  c #675129",
"n  c #725426",
"m  c #735629",
"M  c #75592C",
"N  c #7C5B2B",
"B  c #795727",
"V  c #665231",
"C  c #6C5831",
"Z  c #60563A",
"A  c #6F5C39",
"S  c #665A3D",
"D  c #755E39",
"F  c #7D5F32",
"G  c #7D6133",
"H  c #7D643B",
"J  c #7F683D",
"K  c #4F4C40",
"L  c #545343",
"P  c #5B5444",
"I  c #5B5A41",
"U  c #5F584A",
"Y  c #615B4B",
"T  c #685E47",
"R  c #6D634D",
"E  c #6C6648",
"W  c #736241",
"Q  c #7C6C46",
"!  c #786749",
"~  c #7F754F",
"^  c #6B6454",
"/  c #6E6857",
"(  c #716750",
")  c #736D5C",
"_  c #706956",
"`  c #7E755E",
"'  c #736D60",
"]  c #767060",
"[  c #7B7463",
"{  c #7E7969",
"}  c #7E7769",
"|  c #815E2A",
" . c #83612E",
".. c #89652D",
"X. c #846230",
"o. c #896733",
"O. c #8D6B34",
"+. c #83683A",
"@. c #84693A",
"#. c #916E36",
"$. c #8D703F",
"%. c #95733B",
"&. c #99763D",
"*. c #97783F",
"=. c #9E7B3C",
"-. c #A07D3E",
";. c #8B7343",
":. c #9C7C42",
">. c #9D7E4C",
",. c #947948",
"<. c #87775A",
"1. c #937C52",
"2. c #9C7F50",
"3. c #A07E43",
"4. c #827C6C",
"5. c #8B7F67",
"6. c #847E71",
"7. c #9D8048",
"8. c #96815B",
"9. c #A38245",
"0. c #A5844C",
"q. c #A9874D",
"w. c #A7884D",
"e. c #AA8B4F",
"r. c #AC8C53",
"t. c #A88C5A",
"y. c #AF9056",
"u. c #AF925C",
"i. c #B19257",
"p. c #B4955B",
"a. c #8B836E",
"s. c #92856C",
"d. c #978667",
"f. c #868173",
"g. c #8A8475",
"h. c #8B8679",
"j. c #8F897B",
"k. c #918B7D",
"l. c #9B927E",
"z. c #A38F66",
"x. c #AD9469",
"c. c #AE9564",
"v. c #B79960",
"b. c #BA9C64",
"n. c #BD9E69",
"m. c #A7997A",
"M. c #A69578",
"N. c #BFA26A",
"B. c #B3A27D",
"V. c #C3A56D",
"C. c #C5A96F",
"Z. c #C2A166",
"A. c #C3A672",
"S. c #C6AA74",
"D. c #C9AC76",
"F. c #CBAF78",
"G. c #CDB27A",
"H. c #D1B67C",
"J. c #D3BA7E",
"K. c #938F83",
"L. c #9B9481",
"P. c #999489",
"I. c #9F9C92",
"U. c #A49A84",
"Y. c #A19C8D",
"T. c #AA9E86",
"R. c #A29F94",
"E. c #ACA085",
"W. c #B6A787",
"Q. c #B7A989",
"!. c #ACA593",
"~. c #B3AD9D",
"^. c #BBB29A",
"/. c #BAB29A",
"(. c #B6B1A4",
"). c #BAB4A5",
"_. c #C1B087",
"`. c #C5B48A",
"'. c #D6BD85",
"]. c #C0B391",
"[. c #C4BDAD",
"{. c #C4BEB0",
"}. c #DBC58A",
"|. c #C9C5BB",
" X c #C9C0B1",
".X c #CEC9C0",
"XX c #D1CCC3",
"oX c #D6D1C7",
"OX c None",
/* pixels */
"OXOXOXOXOXOXOXOXOXc.D.OXOXW D.D.D.OXD.D.8.OXD.D.V.OXOXOXOXOXOXOX",
"OXOXOXOXOXV r C w.N.D.e.r.V.D.A.A.N.D.V.p.p.D.D.9.w.v e OXOXOXOX",
"OXOXOXOXt.}.V.e.p.p.G.N.r.n.n.N.F.b.n.r.C.N.b.C.N.y.G.}.OXOXOXOX",
"OXOXOXA G.'.C.%.w.=.N.y.:.:.:.w.b.:.:.%.i.9.-.i.r.9.G.'.D.OXOXOX",
"OXOXOX>.H.b.r.N ..o.*.Q G G F ;.~ H G b J G G %.#.O.y.V.G.,.OXOX",
"OXOXOX:.n.0.=.9 v v A j j E j L L L h / f g g h n m 9.e.b.:.OXOX",
"OXOXOXN.D.e...7 H <.a.L.l.u u u p t < u q q q > y 9 %.i.G.e.OXOX",
"OXOXOXN.}.'.v.e M.[. XoX(.* : > t : . & X .     & b V.}.}.e.OXOX",
"OXOXOXu.'.C.v.5 f S R ( <.> y y y y u q > *   * = M n.G.G.e.OXOX",
"OXOXOXr.n.=.O.S d.` a.U.( i s f a a Z f p t > > t  .p.V.e.e.OXOX",
"OXOXOXv.p.3...Q d.5.l.~.R L 4.h.K.I.I.I.K.L > t u 9 :.q.*.e.OXOX",
"OXOXOXN.}.G.r.J d.U.U.).R P 6.P.I.!.R.I.P.L : : : 7 p.D.i.e.OXOX",
"OXOXOXN.}.G.N.+.z.!.!.|.^ $ 5 i y i i u i < = : 6 c v.Z.e.7.OXOX",
"OXOXOXu.'.N.i.;.m.T.~.).R , 5 s U U Y P P < * , : X.y.i.-.OXOXOX",
"OXOXOX0.n.r.0.$.m.E.~.|.R t L T ) _ 4.4.] * . * * n X.v.q.OXOXOX",
"OXOXOXp.p.&...V B.E./.{.R y P ^ _ 4.4.a.6.6 i * # 7 #.D.v.e.OXOX",
"OXOXOXN.S.r.o.z Q.].].|.R i s ^ ) { 4.a.6.i K - @ 4 r.D.v.q.OXOX",
"OXOXOXN.}.'.p.e W.`.).|.R 6 i ^ ` f.4.4.6.- # % + 4 i.D.y.r.OXOX",
"OXOXOXV.}.'.b.D T._.[.{.R s P _ [ f.k.g.h.> $ @ + k u.V.e.e.OXOX",
"OXOXOXV.}.H.V.,.m.W.].{.R s s ' ` 4.g.l.h.6 5 $ O x %.=.O.r.OXOX",
"OXOXOX0.D.p.q.C U.~.~.XXR i P ] { g.h.k.6.6 > $ 2 M v.D.p.e.OXOX",
"OXOXOXr.n.-.#.4 5.[.(.XX( 6 P [ 4.g.h.h.f.6 6 @ 2 | p.Z.r.e.OXOX",
"OXOXOXp.p.9.O.v W M.(.|.( 6 P [ g.f.h.g.{ < < @ 1 l b.S.e.e.OXOX",
"OXOXOXN.'.'.b.N z 1.T.{.T i P ' g.f.h.f.{ 6 6 # 3 v r.i.=.:.OXOX",
"OXOXOX>.H.v.e.o.0 V d.{.R i P ) 4.h.h.6.g.6 6 @ o l B b.q.*.OXOX",
"OXOXOXr.n.9.&.l 4 x D s.R 6 s ' 4.h.K.h.4.5 6 @ 3 B q.D.v.e.OXOX",
"OXOXOXr.$.m | 7 2 l N 2.t.k z +.! ;.;.x.x.@.1.4 1 m v.D.i.e.OXOX",
"OXOXOXr.%.:.v.Z.:.r.V.F.G.3.#.Z.u.r.n.H.'.S.G.:.| :.b.D.r.e.OXOX",
"OXOXOXy.0.b.H.G.r.D.H.F.D.r.i.H.v.F.H.D.G.H.C.q.p.G.F.p.3.e.OXOX",
"OXOXOX:.o.r.A.v.O.p.S.V.v.O.q.S.:.n.V.S.b.S.V.O.e.Z.Z.O.OXOXOXOX",
"OXOXOXOXB ..:.9.B O.3.-.%.B  .3.o.#.3.-.#.*.&.B  .%.9.B OXOXOXOX",
"OXOXOXOXOXOX7 | 4 OX| | OXOXOX| | OX| | OXOXn OXOXOX .l OXOXOXOX"
};
