/* XPM */
static char *_632992920412[] = {
/* columns rows colors chars-per-pixel */
"32 32 13 1 ",
"  c black",
". c #060606",
"X c gray6",
"o c #111111",
"O c gray9",
"+ c gray17",
"@ c #3E3E3E",
"# c gray25",
"$ c gray31",
"% c #606060",
"& c #717171",
"* c #909090",
"= c None",
/* pixels */
"=OOOOOOOOOOOOOOOOOOOOOOOOOOOOOOO",
"=O                             O",
"=O  XXXXXXXXXXXXXXXXXXXXXXXXXXXO",
"=O X++#++X+#+##+XX+++##+X+##+##O",
"=OOOOOOOOOOOOOOOOOOOOOOOOOOOOOOO",
"=O  .  . .. . . .. ..   OX++++++",
"=O ........  .. o . ...oo++XXOXX",
"=X..  ..... .   o.....ooo+XOXXXO",
"=+ . ...   O  ...oooo..o.+XXXXXX",
"=O . .. oo ..Ooo.oX+++X+++XXOXOX",
"=O .     o. OO...o+XXOXXX+XXXXXX",
"=O. O   o........o+XXXXOX%++++++",
"=O  .OO..ooooooooo+XOXXXX%$$$$$$",
"=O  Ooo.o..X+X+++++XOXXXX$$$%$+$",
"=O .oo.....+XXXXXX%XXXOXX%%$@$$$",
"=O  ...o..o+.XXOXX%XXXXXX%$$+$$$",
"=Ooo.ooo..o+XOXXXX%++++++%$$$%$$",
"=OooX++O++++XOX+++$++$$$+%$$$$$$",
"=O.o+X.XOXX+XXX+++%+$$%$$$$$$$$+",
"=O..+XXXXXX+XX.++$%$%$$$$%$$+$$$",
"=O. OXoO.XX+XOX++$$$$$$+$%$%$%$$",
"=OO++XXX..X+OXX++$%$$$$$$%+$$$$$",
"=OOX+X.XOXXOXXX++%%$$$$$$%$$$$$$",
"=OX.+XXXOXX+X.X++$$$$%$%$%$$$$$$",
"=OOOOXX..XX+XOX++$%$$$$$$%$++$+$",
"=OOO+XOXXXX+XXO++$%$$$$$$%$$+$%$",
"=OOX+XX.O.X+XXX++%%$$+$$$$$$$$$$",
"=O.X+XX.OXXOX.X++$%$%$$$$%$$%+$$",
"=OXOOOXXXXX+XOO++$$$$$$+$%$$$$$$",
"=OXX+XXOX.X+XXX++$%$$$$$$%$$$$$$",
"=OXX+XXXXXX+XXO++$%$$$$$$%$$$$$$",
"=&******************************"
};
