/* XPM */
static char *_633072775130[] = {
/* columns rows colors chars-per-pixel */
"32 32 180 2 ",
"   c #1B0700",
".  c #1C140E",
"X  c #1A1510",
"o  c #1A1712",
"O  c #2A0F00",
"+  c #261402",
"@  c #281301",
"#  c #3F2102",
"$  c #392405",
"%  c #1A2B2B",
"&  c #1E2C28",
"*  c #1A2C2C",
"=  c #1B2C2C",
"-  c #1A2D2D",
";  c #1B2D2D",
":  c #1D2F30",
">  c #2A2C23",
",  c #202F2F",
"<  c #353D2F",
"1  c #213131",
"2  c #363D3D",
"3  c #411900",
"4  c #542300",
"5  c #4E3404",
"6  c #4C3E07",
"7  c #533300",
"8  c #4F2F10",
"9  c #682C00",
"0  c #6D3200",
"q  c #6D3300",
"w  c #6D3401",
"e  c #733900",
"r  c #733A00",
"t  c #763F02",
"y  c #694604",
"u  c #784302",
"i  c #7B4603",
"p  c #7F4600",
"a  c #7A4604",
"s  c #7D5905",
"d  c #664425",
"f  c #343F41",
"g  c #0E2378",
"h  c #23236C",
"j  c #243C7C",
"k  c #354246",
"l  c #374246",
"z  c #384749",
"x  c #3A464B",
"c  c #3C4A4D",
"v  c #3E4C4F",
"b  c #414E50",
"n  c #404E51",
"m  c #445156",
"M  c #475458",
"N  c #475768",
"B  c #525F65",
"V  c #535E69",
"C  c #545F69",
"Z  c #55626F",
"A  c #5D6A76",
"S  c #616971",
"D  c #676D76",
"F  c #666E76",
"G  c #6E7473",
"H  c #63707E",
"J  c #67717C",
"K  c #6C7678",
"L  c #69757F",
"P  c #804600",
"I  c #804C04",
"U  c #855506",
"Y  c #8B5400",
"T  c #936606",
"R  c #9A6300",
"E  c #92670A",
"W  c #966E0B",
"Q  c #8F700A",
"!  c #9E7004",
"~  c #987108",
"^  c #9B750D",
"/  c #9C750D",
"(  c #977D12",
")  c #A67704",
"_  c #A87703",
"`  c #A97A04",
"'  c #A17C0C",
"]  c #846323",
"[  c #96820F",
"{  c #AF8403",
"}  c #A6840D",
"|  c #B58803",
" . c #B98B03",
".. c #BB8B02",
"X. c #BA9006",
"o. c #B0900D",
"O. c #BC970A",
"+. c #A59813",
"@. c #BBA112",
"#. c #AD952A",
"$. c #B59833",
"%. c #CFA908",
"&. c #C9A80C",
"*. c #D3B10B",
"=. c #C5AF16",
"-. c #CBB617",
";. c #C9B618",
":. c #D4BB12",
">. c #D3BD14",
",. c #CFAC37",
"<. c #CEC217",
"1. c #CDC61A",
"2. c #D6C216",
"3. c #DDC814",
"4. c #DDC815",
"5. c #DBCE1A",
"6. c #DCD01C",
"7. c #DEDB1F",
"8. c #E4D014",
"9. c #E6D516",
"0. c #E1D219",
"q. c #E7DB1B",
"w. c #F3ED1F",
"e. c #3E48A3",
"r. c #667384",
"t. c #6B7581",
"y. c #6D7781",
"u. c #757E80",
"i. c #727A86",
"p. c #727C87",
"a. c #707C8D",
"s. c #2C48D0",
"d. c #7D8589",
"f. c #7E8489",
"g. c #768295",
"h. c #788391",
"j. c #7790F5",
"k. c #878C93",
"l. c #8C9298",
"z. c #8F97A7",
"x. c #9198AC",
"c. c #949CB0",
"v. c #959DB1",
"b. c #979FB3",
"n. c #9AA2B7",
"m. c #9BA2B9",
"M. c #9BA3B9",
"N. c #9CA4BA",
"B. c #99A1BE",
"V. c #A2A7AE",
"C. c #A3A9AF",
"Z. c #A4A9AF",
"A. c #A7ACB1",
"S. c #A5ABB7",
"D. c #A9AEB3",
"F. c #AAAFB7",
"G. c #A0A7BD",
"H. c #A7ADB8",
"J. c #ABB0B4",
"K. c #ABB1B4",
"L. c #AFB3B8",
"P. c #ADB1BA",
"I. c #F6F4A2",
"U. c #B1B6C0",
"Y. c #B1B9D2",
"T. c #B4BBD2",
"R. c #B7BFDC",
"E. c #C1C5CC",
"W. c #C0C4D3",
"Q. c #C4C8D4",
"!. c #C6CAD7",
"~. c #C6CAD8",
"^. c #CFD3E3",
"/. c #D4D8E6",
"(. c #D7DBE8",
"). c #D9DDE8",
"_. c #D9DDE9",
"`. c #DADDE8",
"'. c #F1F1F5",
"]. c None",
/* pixels */
"].].].].].].].].].].].].].].].].].].].].].].].].].].].].].].].].",
"].].].].].].].].].].].].].].].].].].].].].].].].].].].].].].].].",
"].].].].].].].].].].].].].].].].].].].].].].].].].].].].].].].].",
"].].].].].].].].].].].].].].].].].].].].].].].].].].].].].].].].",
"].].].].].].].].].].].].].].].].].].].].d.L V ].].].].].].].].].",
"].].].].].].].].].].].].].].].].].].].- u.!.F.D ].].].].].].].].",
"].].].].].].].].].].].].].].].].].].% Z J l.~.x.B : ].].].].].].",
"].].].].].].].].].].].].].].].].].d.K t.b.P.Y.v.n.g.- ].].].].].",
"].].].].].].].].].].].].].].].].].p.!.k.U.'.S.M.`.z.- ].].].].].",
"].].].].].].].].].].].].].].].].].L E.W.T.H.G.`.C.z ].].].].].].",
"].].].].].].].].].].].].].].].].].].h.R.v.M.`.V.z ].].].].].].].",
"].].].].].].].].].].].].].].].].].].V i.M.`.V.z ].].].].].].].].",
"].].].].].].].].].].].].].].].].].]., a.`.C.z ].].].].].].].].].",
"].].].].].].].].].].].].].].].].].].r.(.D.z ].].].].].].].].].].",
"].].].].].].].].].].].].].].].].].H /.D.c ].].].].].].].].].].].",
"].].].].].].].].].].].].].].].].A ^.J.b ].].].].].].].].].].].].",
"].].].].].].].].].].].].].].].N L.J.m ].].].].].].].].].].].].].",
"].].].].].].].].].P o.%.P ].j j.B.M ].].].].].].].].].].].].].].",
"].].].].].].].].E *.5.-.| ] e.s.g ].].].].].].].].].].].].].].].",
"].].].].].].u W 4.=.~ 8 T 9.#.h ].].].].].].].].].].].].].].].].",
"].].].].]./ @.4._ 0 ].f d ! [ Y ].].].].].].].].].].].].].].].].",
"].].].].9 ;.9.) r & k S f 3 y &.R ].].].].].].].].].].].].].].].",
"].].].].]./ :.I O l F b o 3 ' 0.{ ].].].].].].].].].].].].].].].",
"].].].].].9 } ` +.G c o ].U 2.O.i ].].].].].].].].].].].].].].].",
"].].].].].].t >.I.$.. ].r X.1.7 ].].].].].].].].].].].].].].].].",
"].].].].].- > ( ,.5 4 w  .<.6 ].].].].].].].].].].].].].].].].].",
"].].].].].; z < $ s 6...q.Q   ].].].].].].].].].].].].].].].].].",
"].].].].].].1 ; ].w a w.7.@ ].].].].].].].].].].].].].].].].].].",
"].].].].].].].].].].].+ + ].].].].].].].].].].].].].].].].].].].",
"].].].].].].].].].].].].].].].].].].].].].].].].].].].].].].].].",
"].].].].].].].].].].].].].].].].].].].].].].].].].].].].].].].].",
"].].].].].].].].].].].].].].].].].].].].].].].].].].].].].].].]."
};
