/* XPM */
static char *_633072909702[] = {
/* columns rows colors chars-per-pixel */
"32 32 98 2 ",
"   c black",
".  c #010101",
"X  c gray1",
"o  c gray2",
"O  c #070707",
"+  c #0D0C04",
"@  c #090909",
"#  c gray4",
"$  c #0C0C0C",
"%  c gray5",
"&  c #0E0E0E",
"*  c #1C1B06",
"=  c #09191C",
"-  c gray8",
";  c #161616",
":  c #191919",
">  c #1B1B1B",
",  c gray11",
"<  c #1D1D1D",
"1  c gray12",
"2  c #222222",
"3  c #252525",
"4  c gray15",
"5  c #272727",
"6  c #282828",
"7  c gray16",
"8  c #2A2A2A",
"9  c gray17",
"0  c gray18",
"q  c #2F2F2F",
"w  c #313131",
"e  c #323232",
"r  c #343434",
"t  c gray21",
"y  c #373737",
"u  c gray22",
"i  c #393939",
"p  c gray23",
"a  c #3C3C3C",
"s  c gray24",
"d  c #3E3E3E",
"f  c #3F3F3F",
"g  c #7A751D",
"h  c #414141",
"j  c gray27",
"k  c gray28",
"l  c #4D4C47",
"z  c #484848",
"x  c #494949",
"c  c gray29",
"v  c #4B4B4B",
"b  c gray30",
"n  c #505050",
"m  c gray32",
"M  c #535353",
"N  c #555555",
"B  c #565656",
"V  c gray34",
"C  c #585858",
"Z  c #5A5A5A",
"A  c #5B5B5B",
"S  c #5F5F5F",
"D  c #7C5E7C",
"F  c #626262",
"G  c #646464",
"H  c #676767",
"J  c DimGray",
"K  c #6A6A6A",
"L  c #717171",
"P  c #727272",
"I  c gray45",
"U  c gray46",
"Y  c #767676",
"T  c #777777",
"R  c #797979",
"E  c gray48",
"W  c #817E25",
"Q  c #A69F2D",
"!  c #B3AB2A",
"~  c #C9C129",
"^  c #E0D238",
"/  c #E8E120",
"(  c #EBE426",
")  c #9E8177",
"_  c #6238AC",
"`  c #4A8FB8",
"'  c gray51",
"]  c gray54",
"[  c #8B8B8B",
"{  c gray56",
"}  c #909090",
"|  c gray59",
" . c #9A9A9A",
".. c #9F9F9F",
"X. c gray65",
"o. c #ACACAC",
"O. c #B6B6B6",
"+. c None",
/* pixels */
"+.+.+.+.+.+.+.+.+.+.+.+.+.+.+.+.+.+.+.+.+.+.+.+.+.+.+.+.+.+.+.+.",
"+.+.+.+.+.+.+.+.+.+.+.+.+.+.+.+.+.+.+.+.+.+.+.+.+.+.+.+.+.+.+.+.",
"+.+.+.+.+.+.+.+.+.+.+.+.+.+.+.+.+.+.+.+.+.+.+.+.+.+.+.+.+.+.+.+.",
"+.+.+.+.+.+.+.+.+.+.+.+.+.+.+.+.+.+.+.+.+.+.+.+.+.+.+.+.+.+.+.+.",
"+.+.+.+.+.+.+.+.+.+.+.+.+.+.+.+.+.+.;   +.+.+.+.+.+.+.+.+.+.+.+.",
"+.+.+.+.+.+.+.+.+.+.+.+.+.+.  +.+.B 2       +.+.+.+.+.+.+.+.+.+.",
"+.+.+.+.+.+.+.+.+.+.+.+.+.+.    < k +.B @     +.+.+.} +.+.+.+.+.",
"+.+.+.+.+.+.+.+.+.+.+.+.+.+.+.h x B F r +.+.  +.d T J +.+.+.+.+.",
"+.+.+.+.+.+.+.+.+.+.+.+.+.+.J r b & & +.    +.0 | u & +.+.+.+.+.",
"+.+.+.+.+.+.+.+.+.+.+.+.+.  o +.+.u 6 @ T   +.5 O.P +.+.+.+.+.+.",
"+.+.+.+.+.+.+.+.+.+.+.+.+.+.  0 k +.@ X.k +.< [ 5   +.+.+.+.+.+.",
"+.+.+.+.+.+.+.+.+.+.+.+.+.+.+.      b x o 5 [ 6   +.+.+.+.+.+.+.",
"+.+.+.+.+.+.+.+.+.+.+.+.+.+.+.        +.0 X.m   +.+.+.+.+.+.+.+.",
"+.+.+.+.+.+.+.+.+.+.+.+.+.+.+.u     +.d R 5 Z   +.+.+.+.+.+.+.+.",
"+.+.+.+.+.+.+.+.+.+.+.+.+.+.+.r   d m J 6     +.+.+.+.+.+.+.+.+.",
"+.+.+.+.+.+.+.+.+.+.+.+.+.+.+.+.+.J O.u +.+.+.+.+.+.+.+.+.+.+.+.",
"+.+.+.+.+.+.+.+.+.+.+.+.+.+.+.+.: 0 u & +.+.+.+.+.+.+.+.+.+.+.+.",
"+.+.+.+.+.+.+.+.+.+.+.+.+.+.+.0 h @ +.+.+.+.+.+.+.+.+.+.+.+.+.+.",
"+.+.+.+.+.+.+.+.Z R { @ +.  2 B o +.+.+.+.+.+.+.+.+.+.+.+.+.+.+.",
"+.+.+.+.+.+.+.B H w d +.+ l H     +.+.+.+.+.+.+.+.+.+.+.+.+.+.+.",
"+.+.+.+.+.+.+.k 6 +.* = ^ Q 6   +.+.+.+.+.+.+.+.+.+.+.+.+.+.+.+.",
"+.+.+.+.+.+.Z 0 +.+.~ ` _ g   +.+.+.+.+.+.+.+.+.+.+.+.+.+.+.+.+.",
"+.+.+.+.+.+.5 +.+.+.( ) D   : w +.+.+.+.+.+.+.+.+.+.+.+.+.+.+.+.",
"+.+.+.+.+.@ - +.+.P W / !   6 o.+.+.+.+.+.+.+.+.+.+.+.+.+.+.+.+.",
"+.+.+.+.+.    +.T B : +.  B F T +.+.+.+.+.+.+.+.+.+.+.+.+.+.+.+.",
"+.+.+.+.+.+.+.m Z < +.+.+.< x  .+.+.+.+.+.+.+.+.+.+.+.+.+.+.+.+.",
"+.+.+.+.+.+.} w < +.+.  d P [ +.+.+.+.+.+.+.+.+.+.+.+.+.+.+.+.+.",
"+.+.+.+.+.+.u @     < r ' +.+.+.+.+.+.+.+.+.+.+.+.+.+.+.+.+.+.+.",
"+.+.+.+.+.+.+.+.+.2 +.+.+.+.+.+.+.+.+.+.+.+.+.+.+.+.+.+.+.+.+.+.",
"+.+.+.+.+.+.+.+.+.+.+.+.+.+.+.+.+.+.+.+.+.+.+.+.+.+.+.+.+.+.+.+.",
"+.+.+.+.+.+.+.+.+.+.+.+.+.+.+.+.+.+.+.+.+.+.+.+.+.+.+.+.+.+.+.+.",
"+.+.+.+.+.+.+.+.+.+.+.+.+.+.+.+.+.+.+.+.+.+.+.+.+.+.+.+.+.+.+.+."
};
