/* XPM */
static char *_633072916110[] = {
/* columns rows colors chars-per-pixel */
"32 32 11 1 ",
"  c #353535",
". c #686035",
"X c #606060",
"o c #A16002",
"O c #C19902",
"+ c #F88902",
"@ c #E9C100",
"# c #F8F823",
"$ c #01C1F0",
"% c gray63",
"& c None",
/* pixels */
"&&&&&&&&&&&&&&&&&&&&&&&&&&&&&&&&",
"&&&&&&&&&&&&&&&&&&&&&&&&&&&&&&&&",
"&&&&&&&&&&&&&&&&&&&&&&&&&&&&&&&&",
"&&&&&&&&&&&&&&&&&&&#&&&#&&&&&&&&",
"&&&&&&&&&&&&&&&&&&&&@&&&&#&&&&&&",
"&&&&&&&&&&&&&&&&&#&@O&#o#o X%&&&",
"&&&&&&&&&&&&&&&&@&o&#o#O@o%%X&&&",
"&&&&&&&&&&&&&&&&&oO#@#O##o@% &&&",
"&&&&&&&&&&&&&&#&@&##o#&X@#%X &&&",
"&&&&&&&&&&&&&&&@O#@o&#%OoX%.&&&&",
"&&&&&&&&&&&&&&&&&o###O#&X%% &&&&",
"&&&&&&&&&&&&&&&&##O&%#&o%%.&&&&&",
"&&&&&&&&&&&&&&#&oO#@O&o%%. &&&&&",
"&&&&&&&&&&&&&&&&&#o##oXX. &&&&&&",
"&&&&&&&&&&&&&&o#.@.@%@&o &&&&&&&",
"&&&&&&&&&&&&&&&o&&&##&o& &&&&&&&",
"&&&&&&&&&&&&&&&.@.#%#+&O &&&&&&&",
"&&&&&&&&&&&&&@&&&#O&O#  &&&&&&&&",
"&&&&&&&&O &#o.&.#%#O  &&&&&&&&&&",
"&&&&&&o##o&o&&###@% &&&&&&&&&&&&",
"&&&&&&#oo#&&oO#O...&&&&&&&&&&&&&",
"&&&&&&$#&#o#Oo@.%X.&&&&&&&&&&&&&",
"&&&&&&# #OO&@ %   .&&&&&&&&&&&&&",
"&&&&&&$Xoo#&&# &&&&&&&&&&&&&&&&&",
"&&&&&$&$& ##Oo&&&&&&&&&&&&&&&&&&",
"&&&&$$$..% oO##o&&&&&&&&&&&&&&&&",
"&&&&&.$ % &o#oo#O&&&&&&&&&&&&&&&",
"&&&&&&o# &$X #&# &&&&&&&&&&&&&&&",
"&&&&&&@o$$ $#$#o&&&&&&&&&&&&&&&&",
"&&&&&&& .$$.   &&&&&&&&&&&&&&&&&",
"&&&&&&&&&&&&&&&&&&&&&&&&&&&&&&&&",
"&&&&&&&&&&&&&&&&&&&&&&&&&&&&&&&&"
};
