/* XPM */
static char *_633072933442[] = {
/* columns rows colors chars-per-pixel */
"32 32 12 1 ",
"  c #232323",
". c #570060",
"X c #682C79",
"o c #E1C102",
"O c #F8F800",
"+ c #0002A9",
"@ c #2346D9",
"# c #5779F8",
"$ c #35A9C9",
"% c #57E1F8",
"& c #C9F8F8",
"* c None",
/* pixels */
"********************************",
"********************************",
"********************************",
"*****************OoO************",
"***************%**O**%&*********",
"**************%@*o*o*@%*********",
"****************$@O@$***********",
"*************OXo@*&*@o*O********",
"*************oO*O&*%O*Oo*%******",
"*************O*o@*%&#o.O%&%*****",
"****************$@O#$&#.&&&%****",
"**************%@*o*o&*&&*%#@****",
"**************&%**O**#**%@******",
"*****************OoO**&*#*******",
"*********************%&*@*******",
"**********************%*+*******",
"*********************&*$+*******",
"***********#*******%@*$+********",
"**********%+*******@*&#*********",
"***********$+@%$%$&*%*#*********",
"*********@%+%&&*&%*#+++*********",
"*********@&%+@#$&*%+************",
"*******&%@***#%#+++*************",
"******#@ **$# $+****************",
"******@ %*+# *+#****************",
"****** @++$ **+%#***************",
"******* @$ **&@+****************",
"******o# @  %%+*****************",
"*****o@% #@%  ******************",
"*****o.@o.  ********************",
"********************************",
"********************************"
};
