/* XPM */
static char *_633072939639[] = {
/* columns rows colors chars-per-pixel */
"32 32 11 1 ",
"  c gray31",
". c #6035B1",
"X c #114FF8",
"o c #5779F8",
"O c #9100E1",
"+ c #0791E9",
"@ c #79C9F8",
"# c #818181",
"$ c #A9A9A9",
"% c gray85",
"& c None",
/* pixels */
"&&&&&&&&&&&&&&&&&&&&&&&&&&&&&&&&",
"&&&&&&&&&&&&&&&&&&&&&&&&&&&&&&&&",
"&&&&&&&&&&&&&&&&&&&&&&&&&&&&&&&&",
"&&&&&&&&&&&&&&&&&&XXX&XX&&XXX&&&",
"&&&&&&&&&&&&&&&&XX@X&.X&&X&X&O&&",
"&&&&&&&&&&&&&&&X&.oO..&&X&o@.O&&",
"&&&&&&&&&&&&&&&X..O&#&&&X.oo$.&&",
"&&&&&&&&&&&&&&X@oO&o.&&&.$.$.&&&",
"&&&&&&&&&&&&&&X@O&o&O.&&o...&&&&",
"&&&&&&&&&&&&&&X@O&.OO.$.@X&&&&&&",
"&&&&&&&&&&&&&&X@oX%..$.o@X&&&&&&",
"&&&&&&&&&&&&&&&X&&X%$.&&X&&&&&&&",
"&&&&&&&&&&&&&&&&&&&..o&&&&&&&&&&",
"&&&&&&&&&&&&&&&&oo&@@@XX&&&&&&&&",
"&&&&&&&&&&&&&&&&&XXXXX&&&&&&&&&&",
"&&&&&&&&&&&&&&&&o.&o.&&&&&&&&&&&",
"&&&&&&&&&&&&&&&o.&o.&&&&&&&&&&&&",
"&&&&&&&&@&&&&&o.&o.&&&&&&&&&&&&&",
"&&&&&&&@O+&&$o.&o.&&&&&&&&&&&&&&",
"&&&&&&&X&X##&.&o.&&&&&&&&&&&&&&&",
"&&&&&&%&&&#%&#o.&&&&&&&&&&&&&&&&",
"&&&&&&&#$%%&&&$.&&&&&&&&&&&&&&&&",
"&&&&%& &&X.o&% &&&&&&&&&&&&&&&&&",
"&&&&& &&&.oX%# &&&&&&&&&&&&&&&&&",
"&&&&& &&.o..%&X@&&&&&&&&&&&&&&&&",
"&&&&&$X.o.&&$&&.@&&&&&&&&&&&&&&&",
"&&&&$&.o.&&& &X+.&&&&&&&&&&&&&&&",
"&&&&#&X.X&& &%..&&&&&&&&&&&&&&&&",
"&&&&&&&&$  && &&&&&&&&&&&&&&&&&&",
"&&&&&  $&&&% &&&&&&&&&&&&&&&&&&&",
"&&&&&&&&&&&&&&&&&&&&&&&&&&&&&&&&",
"&&&&&&&&&&&&&&&&&&&&&&&&&&&&&&&&"
};
