/* XPM */
static char *_633072946133[] = {
/* columns rows colors chars-per-pixel */
"32 32 11 1 ",
"  c #352300",
". c gray31",
"X c #606060",
"o c gray44",
"O c #898989",
"+ c gray63",
"@ c #A9A9A9",
"# c #B9B9B9",
"$ c #C9C9D9",
"% c gray85",
"& c None",
/* pixels */
"&&&&&&&&&&&&&&&&&&&&&&&&&&&&&&&&",
"&&&&&&&&&&&&&&&&&&&&&&&&&&&&&&&&",
"&&&&&&&&&&&&&&&&&&&&&&&&&&&&&&&&",
"&&&&&&&&&&&&&&&&&&&&&&&&&&&&&&&&",
"&&&&&&&&&&&&&&&&&&&&&&&&&&&&&&&&",
"&&&&&&&&&&&&&&&&&&o#O.%o&&&&&&&&",
"&&&&&&&&&&&&&&&&##%&%&@%&&&&&&&&",
"&&&&&&&&&&&&&&&&o%@%&$&&&&&&&&&&",
"&&&&&&&&&&&&&&&O%O%&&$o%&X%O&&&&",
"&&&&&&&&&&&&&&&%O##%$&&+X%&@&&&&",
"&&&&&&&&&&&&&&&&&%+%O#+X%&@ &&&&",
"&&&&&&&&&&&&&&&&O%O##OX%&@ &&&&&",
"&&&&&&&&&&&&&&&&%&#O&o%&@ &&&&&&",
"&&&&&&&&&&&&&&&&&&%o%+&@ &&&&&&&",
"&&&&&&&&&&&&&&&&&%o%+&@ &&&&&&&&",
"&&&&&&&&&&&&&&&&&&X+&@ &&&&&&&&&",
"&&&&&&&&&&&&&&&&&X%&@ &&&&&&&&&&",
"&&&&&&&&&&&&&&&&X%&@ &&&&&&&&&&&",
"&&&&&&&&&&&&%&&X%.@ &&&&&&&&&&&&",
"&&&&&&&&o%%&#&o%.@ &&&&&&&&&&&&&",
"&&&&&&&&.o@%ooo.@ &&&&&&&&&&&&&&",
"&&&&&&&X@%..o&.o &&&&&&&&&&&&&&&",
"&&&&&&@X%o@.&%% &&&&&&&&&&&&&&&&",
"&&&&&&%o&&&.@%oo#%&&&&&&&&&&&&&&",
"&&&&&&%&&&.@ ..%&&&&&&&&&&&&&&&&",
"&&&&&o@&&.@ &@.@%&&&&&&&&&&&&&&&",
"&&&&&&&&.@ &&o%o%&&&&&&&&&&&&&&&",
"&&&&&&&.@ &&&%@.o&&&&&&&&&&&&&&&",
"&&&&&&.% &&&oXX&&&&&&&&&&&&&&&&&",
"&&&&&&  &&@%%@&&&&&&&&&&&&&&&&&&",
"&&&&&&&&&&o&&&&&&&&&&&&&&&&&&&&&",
"&&&&&&&&&&&&&&&&&&&&&&&&&&&&&&&&"
};
