/* XPM */
static char *_633072952974[] = {
/* columns rows colors chars-per-pixel */
"32 32 143 2 ",
"   c #222222",
".  c #232323",
"X  c #252323",
"o  c gray14",
"O  c gray23",
"+  c #6B180E",
"@  c #7B2A1F",
"#  c #423B36",
"$  c #7C2A20",
"%  c #753027",
"&  c #71332A",
"*  c #743028",
"=  c #71332C",
"-  c #70342C",
";  c #4A4036",
":  c #4E4336",
">  c #41403E",
",  c #5F433E",
"<  c #574C39",
"1  c #5B513B",
"2  c #7E422B",
"3  c #745238",
"4  c #7E3960",
"5  c gray30",
"6  c #4E4E4E",
"7  c gray31",
"8  c #594644",
"9  c #504E4E",
"0  c #5C5549",
"q  c #654240",
"w  c #655E41",
"e  c #705440",
"r  c #676042",
"t  c #941102",
"y  c #991100",
"u  c #991200",
"i  c #9F100F",
"p  c #8C1214",
"a  c #A50F00",
"s  c #A01100",
"d  c #AA1100",
"f  c #A01800",
"g  c #A11D00",
"h  c #A31D00",
"j  c #BA081E",
"k  c #8B2412",
"l  c #9F3A1B",
"z  c #A72400",
"x  c #BD2500",
"c  c #B52800",
"v  c #B23701",
"b  c #B33701",
"n  c #B53804",
"m  c #BD3F00",
"M  c #8F3131",
"N  c #C1120E",
"B  c #F70000",
"V  c #F70100",
"C  c #F80000",
"Z  c #F80200",
"A  c #F90600",
"S  c #F20800",
"D  c #F00F00",
"F  c #F81000",
"G  c #F81200",
"H  c #D33E00",
"J  c #D93C00",
"K  c #F32300",
"L  c #F12800",
"P  c #F73702",
"I  c #F63D01",
"U  c #F83901",
"Y  c #B44500",
"T  c #BF4D01",
"R  c #B56E0E",
"E  c #A26016",
"W  c #964133",
"Q  c #A75E37",
"!  c #956229",
"~  c #8E6532",
"^  c #A56137",
"/  c #A66539",
"(  c #C24803",
")  c #C54A00",
"_  c #C14D01",
"`  c #C94E00",
"'  c #C84F00",
"]  c #C94F00",
"[  c #C04D09",
"{  c #CF5B01",
"}  c #C85E01",
"|  c #D25C01",
" . c #D65F00",
".. c #F34101",
"X. c #DB6A01",
"o. c #DB640F",
"O. c #F26201",
"+. c #F66001",
"@. c #F86001",
"#. c #EB7802",
"$. c #EE7D01",
"%. c #F87B01",
"&. c #A05446",
"*. c #BE801C",
"=. c #E18D01",
"-. c #EE8901",
";. c #FA8B02",
":. c #F39702",
">. c #F99202",
",. c #F49802",
"<. c #F49A02",
"1. c #D2A001",
"2. c #DDAD02",
"3. c #E4A501",
"4. c #ECA901",
"5. c #F3A202",
"6. c #F2A902",
"7. c #F1AD02",
"8. c #EFB902",
"9. c #EEBA02",
"0. c #F0B102",
"q. c #F0B402",
"w. c #F0B502",
"e. c #EEC002",
"r. c #EEC102",
"t. c #EDC402",
"y. c #EEC503",
"u. c #ECC702",
"i. c #E8D802",
"p. c #EAD902",
"a. c #0F1D85",
"s. c #0D1E89",
"d. c #0C22B7",
"f. c #411E8E",
"g. c #412A87",
"h. c #3D4B81",
"j. c #3C4E8F",
"k. c #3F5398",
"l. c #42559F",
"z. c #666182",
"x. c #2544DE",
"c. c #2A47DF",
"v. c None",
/* pixels */
"v.v.v.v.v.v.v.v.v.v.v.v.v.v.v.v.v.v.v.v.v.v.v.v.v.v.v.v.v.v.v.v.",
"v.v.v.v.v.v.v.v.v.v.v.v.v.v.v.v.v.v.v.v.v.v.v.v.v.v.v.v.v.v.v.v.",
"v.v.v.v.v.v.v.v.v.v.v.v.v.v.v.v.v.v.v.v.v.v.v.v.v.v.v.v.v.v.v.v.",
"v.v.v.v.v.v.v.v.v.v.v.v.v.v.v.v.v.v.v.v.v.v.v.v.v.v.v.v.v.v.v.v.",
"v.v.v.v.v.v.v.v.v.v.v.v.v.v.v.v.v.v.v.v.v.v.v.v.v.v.v.v.v.v.v.v.",
"v.v.v.v.v.v.v.v.v.v.v.v.v.v.v.v.v.v.F v.v.v.v.v.v.v.v.v.v.v.v.v.",
"v.v.v.v.v.v.v.v.v.v.v.v.v.v.v.v.v.A @.v.v.v.i.i.v.v.v.v.v.v.v.v.",
"v.v.v.v.v.v.v.v.v.v.v.v.v.v.v.v.v.J r.;.v.y.5.8.i.v.v.v.v.v.v.v.",
"v.v.v.v.v.v.v.v.v.v.v.v.v.v.v.C v.v.5.u.4.O.y.w.8.v.v.v.v.v.v.v.",
"v.v.v.v.v.v.v.v.v.v.v.v.v.v.v.%.C >.K | P :.y.7.0.v.v.v.v.v.v.v.",
"v.v.v.v.v.v.v.v.v.v.v.v.v.v.v.v.d z H L 3.X.6.w.| v.v.v.v.v.v.v.",
"v.v.v.v.v.v.v.v.v.v.v.v.v.v.v.v.v.S <.2.n +.P | u v.v.v.v.v.v.v.",
"v.v.v.v.v.v.v.v.v.v.v.v.v.v.` v.V ` ( d C ..-.s X v.v.v.v.v.v.v.",
"v.v.v.v.v.v.v.v.v.v.v.v.v.v.v.` u u v.#.( n E   v.v.v.v.v.v.v.v.",
"v.v.v.v.v.v.v.v.v.v.v.v.v.v.v.v.v.v.( p c ^ a.o v.v.v.v.v.v.v.v.",
"v.v.v.v.v.v.v.v.v.v.v.v.v.v.v.v.' v.W f.j + o v.v.v.v.v.v.v.v.v.",
"v.v.v.v.v.v.v.v.v.v.v.v.v.v.v.v.v.[ g.l s.  v.v.v.v.v.v.v.v.v.v.",
"v.v.v.v.v.v.v.v.v.v.v.v.v.v.v.v.v.v.&.+   v.v.v.v.v.v.v.v.v.v.v.",
"v.v.v.v.v.v.v.v.v.v.v.v.v.v.v.v.v.4 l.o v.v.v.v.v.v.v.v.v.v.v.v.",
"v.v.v.v.v.v.v.v.v.v.v.v.v.v.v.v.x.k.  v.v.v.v.v.v.v.v.v.v.v.v.v.",
"v.v.v.v.v.v.v.v.v.v.$ $ 8 9 d.c.j.v.v.v.v.v.v.v.v.v.v.v.v.v.v.v.",
"v.v.v.v.v.v.v.v.v.M N x 2 * z.h.v.v.v.v.v.v.v.v.v.v.v.v.v.v.v.v.",
"v.v.v.v.v.v.v.v.~ o.P v.g & 1 > v.v.v.v.v.v.v.v.v.v.v.v.v.v.v.v.",
"v.v.v.v.v.v.v.v.R =.v.v./ ; v.6 7 v.v.v.v.v.v.v.v.v.v.v.v.v.v.v.",
"v.v.v.v.v.v.v.! } Y g = : v._ k 9 v.v.v.v.v.v.v.v.v.v.v.v.v.v.v.",
"v.v.v.v.v.v.v.0 3 u ^ < v.v.D s v.v.v.v.v.v.v.v.v.v.v.v.v.v.v.v.",
"v.v.v.v.v.v.v.v.- * # v.T $.F q v.v.v.v.v.v.v.v.v.v.v.v.v.v.v.v.",
"v.v.v.v.v.v.v.v.r w v.t 1.,.e v.v.v.v.v.v.v.v.v.v.v.v.v.v.v.v.v.",
"v.v.v.v.v.v.v.v.v.O 7 *.b , v.v.v.v.v.v.v.v.v.v.v.v.v.v.v.v.v.v.",
"v.v.v.v.v.v.v.v.v.v.6 6 v.v.v.v.v.v.v.v.v.v.v.v.v.v.v.v.v.v.v.v.",
"v.v.v.v.v.v.v.v.v.v.v.v.v.v.v.v.v.v.v.v.v.v.v.v.v.v.v.v.v.v.v.v.",
"v.v.v.v.v.v.v.v.v.v.v.v.v.v.v.v.v.v.v.v.v.v.v.v.v.v.v.v.v.v.v.v."
};
