/* XPM */
static char *_633072962043[] = {
/* columns rows colors chars-per-pixel */
"32 32 121 2 ",
"   c black",
".  c #0E0E0E",
"X  c #1B1004",
"o  c #111111",
"O  c #131313",
"+  c #1B1B1B",
"@  c gray12",
"#  c #2A1100",
"$  c #2C1300",
"%  c #2E1300",
"&  c #2C1B06",
"*  c #2F1D07",
"=  c #321F08",
"-  c #2F2209",
";  c #3C2C0A",
":  c #202020",
">  c #232323",
",  c gray14",
"<  c #272727",
"1  c #282828",
"2  c #2C2C2C",
"3  c #362D22",
"4  c gray21",
"5  c #3E3E3E",
"6  c #482C0B",
"7  c #42310B",
"8  c #692307",
"9  c #653B0D",
"0  c #663F0F",
"q  c #6C400A",
"w  c #6A4211",
"e  c #6D4311",
"r  c #754812",
"t  c #7D4D13",
"y  c #7D5214",
"u  c #7F5214",
"i  c gray26",
"p  c #444444",
"a  c #484848",
"s  c #4E4E4E",
"d  c #505050",
"f  c #515151",
"g  c #535353",
"h  c gray35",
"j  c #5A5A5A",
"k  c #5B5B5B",
"l  c gray36",
"z  c #5D5D5D",
"x  c #5F5F5F",
"c  c #606060",
"v  c gray45",
"b  c #777777",
"n  c #797979",
"m  c gray48",
"M  c #7B7B7B",
"N  c gray49",
"B  c #9E1E04",
"V  c #842E07",
"C  c #9A3108",
"Z  c #943B1B",
"A  c #943B1C",
"S  c #953B1C",
"D  c #D0150B",
"F  c #D1170C",
"G  c #CA2212",
"H  c #D53420",
"J  c #D73622",
"K  c #82470A",
"L  c #8A4C0E",
"P  c #91550F",
"I  c #96580E",
"U  c #815414",
"Y  c #875915",
"T  c #855816",
"R  c #885A15",
"E  c #8A5A16",
"W  c #8F6017",
"Q  c #9A6414",
"!  c #906418",
"~  c #9A6B19",
"^  c #AA6B19",
"/  c #A3741B",
"(  c #AD7218",
")  c #AF711C",
"_  c #AB791C",
"`  c #B07519",
"'  c #B97C1D",
"]  c #C96015",
"[  c #C5711A",
"{  c #BE831F",
"}  c #BE851F",
"|  c #BF851F",
" . c #C38C21",
".. c #CD9021",
"X. c #CF9724",
"o. c #CF9823",
"O. c #818181",
"+. c #838383",
"@. c #868686",
"#. c gray53",
"$. c gray57",
"%. c #939393",
"&. c gray60",
"*. c #9B9B9B",
"=. c gray61",
"-. c #9D9D9D",
";. c gray62",
":. c #9F9F9F",
">. c gray63",
",. c gray64",
"<. c #A4A4A4",
"1. c #A5A5A5",
"2. c gray65",
"3. c #A9A9A9",
"4. c #AAAAAA",
"5. c #B4B4B4",
"6. c #B6B6B6",
"7. c #C0C0C0",
"8. c #D5D5D5",
"9. c #DADADA",
"0. c None",
/* pixels */
"0.0.0.0.0.0.0.0.0.0.0.0.0.0.0.0.0.0.0.0.0.0.0.0.0.0.0.0.0.0.0.0.",
"0.0.0.0.0.0.0.0.0.0.0.0.0.0.0.0.0.0.0.0.0.0.0.0.0.0.0.0.0.0.0.0.",
"0.0.0.0.0.0.0.0.0.0.0.0.0.0.0.0.0.0.0.0.0.0.0.0.0.0.0.0.0.0.0.0.",
"0.0.0.0.0.0.0.0.0.0.0.0.0.0.0.0.0.0.0.0.0.0.0.0.0.0.0.0.0.0.0.0.",
"0.0.0.0.0.0.0.0.0.0.0.0.0.0.0.0.0.0.0.0.0.0.0.0.0.0.0.0.0.0.0.0.",
"0.0.0.0.0.0.0.0.0.0.0.0.0.0.0.0.0.0.0.0.0.0.%.0.0.0.0.0.0.0.0.0.",
"0.0.0.0.0.0.0.0.0.0.0.0.0.0.0.0.0.0.0.0.0.4.N c 0.0.0.0.0.0.0.0.",
"0.0.0.0.0.0.0.0.0.0.0.0.0.0.0.0.0.0.0.0.0.0.4.x > 0.0.0.0.0.0.0.",
"0.0.0.0.0.0.0.0.0.0.0.0.0.0.0.0.0.0.0.0.0.0.#.c i 0.0.0.0.0.0.0.",
"0.0.0.0.0.0.0.0.0.0.0.0.0.0.0.0.0.0.7.m %.2.#.-.+.+.m 0.0.0.0.0.",
"0.0.0.0.0.0.0.0.0.0.0.0.0.0.0.0.0.0.#.-.2.0.2.0.2.&.5 0.0.0.0.0.",
"0.0.0.0.0.0.0.0.0.0.0.0.0.0.0.0.0.0.0.d d &.,.-.-.4 0.0.0.0.0.0.",
"0.0.0.0.0.0.0.0.0.0.0.0.0.0.0.0.0.0.0.0.0.-.x k 2 0.0.0.0.0.0.0.",
"0.0.0.0.0.0.0.0.0.0.0.0.0.0.0.0.0.0.0.4.2.v k . 0.0.0.0.0.0.0.0.",
"0.0.0.0.0.0.0.0.0.0.0.0.0.0.0.0.0.0.4.c s i O 0.0.0.0.0.0.0.0.0.",
"0.0.0.0.0.0.0.0.0.0.0.0.0.0.0.0.0.4.m x k O 0.0.0.0.0.0.0.0.0.0.",
"0.0.0.0.0.0.0.0.0.0.0.0.0.0.0.0.9.5.-.-.+ 0.0.0.0.0.0.0.0.0.0.0.",
"0.0.0.0.0.0.0.0.0.0.0.0.0.0.0.8.6.2.2.1 0.0.0.0.0.0.0.0.0.0.0.0.",
"0.0.0.0.0.0.0.0.0.0.0.0.0.0.2.+.x k + 0.0.0.0.0.0.0.0.0.0.0.0.0.",
"0.0.0.0.0.0.0.0.0.0.X.0.0.0.+.0.d > 0.0.0.0.0.0.0.0.0.0.0.0.0.0.",
"0.0.0.0.0.0.0.0.0. ._ ) 0.v c d < 0.0.0.0.0.0.0.0.0.0.0.0.0.0.0.",
"0.0.0.0.0.0.0.0.} e - / U 3 a 1 0.0.0.0.0.0.0.0.0.0.0.0.0.0.0.0.",
"0.0.0.0.0.0.0.} w   0.8 [ U X 0.0.0.0.0.0.0.0.0.0.0.0.0.0.0.0.0.",
"0.0.0.0.0.0.o.0   0.F G C ~ U & 0.0.0.0.0.0.0.0.0.0.0.0.0.0.0.0.",
"0.0.0.0.0.0.{ 6 0.D J S % 7 W r * 0.0.0.0.0.0.0.0.0.0.0.0.0.0.0.",
"0.0.0.0.0.0.L ' V J Z #   ; U U - 0.0.0.0.0.0.0.0.0.0.0.0.0.0.0.",
"0.0.0.0.0.0.0...B S # 0.q W Y - 0.0.0.0.0.0.0.0.0.0.0.0.0.0.0.0.",
"0.0.0.0.0.0.0.I ] Q 9 K ( E - 0.0.0.0.0.0.0.0.0.0.0.0.0.0.0.0.0.",
"0.0.0.0.0.0.0.0.0.P ^ ` E = 0.0.0.0.0.0.0.0.0.0.0.0.0.0.0.0.0.0.",
"0.0.0.0.0.0.0.0.0.0.0.0.0.0.0.0.0.0.0.0.0.0.0.0.0.0.0.0.0.0.0.0.",
"0.0.0.0.0.0.0.0.0.0.0.0.0.0.0.0.0.0.0.0.0.0.0.0.0.0.0.0.0.0.0.0.",
"0.0.0.0.0.0.0.0.0.0.0.0.0.0.0.0.0.0.0.0.0.0.0.0.0.0.0.0.0.0.0.0."
};
