/* XPM */
static char *_633072785422[] = {
/* columns rows colors chars-per-pixel */
"32 32 13 1 ",
"  c #793E1A",
". c #C94F00",
"X c #008900",
"o c #01F000",
"O c #F88902",
"+ c #F8E900",
"@ c #0000C1",
"# c #114FF8",
"$ c #A168F8",
"% c #0099F0",
"& c #57E1F8",
"* c #F8F8F8",
"= c None",
/* pixels */
"================================",
"================================",
"================================",
"================++O ============",
"===============O. +O ===========",
"===============  OO. ===@@@@====",
"================= . =O @%@%&@===",
"============O ===.O.   @&#@%@===",
"===========+. ==.*+O.O %#@%#@===",
"===========+ O .*+O. .@#&%@@====",
"===========O+O.O+OO =#&%@@======",
"=========== .. .O. =#&%@========",
"============  = . =#&%@=========",
"==============O O.#&%@==========",
"============== . #&%@===========",
"================#&%@============",
"===============#&%@=============",
"============ +#&%@==============",
"======@@@#==Xo+%@===============",
"=====@$&%&# .oo+================",
"=====@&$   X+.X ================",
"====@$$ ==XoX ==================",
"====@$ ==XoX #==================",
"===@@$ =XoX @& =================",
"===$@$ XoX =@% =================",
"===@$ XoX =@$& =================",
"===+XooX @@$&$ =================",
"===@@XoX$$$$  ==================",
"===@+@X$    ====================",
"====@@+ $ ======================",
"================================",
"================================"
};
