/* XPM */
static char *_633072790954[] = {
/* columns rows colors chars-per-pixel */
"32 32 12 1 ",
"  c black",
". c #350700",
"X c #682C79",
"o c #991100",
"O c #A16002",
"+ c #C19902",
"@ c #E9C100",
"# c #F8F800",
"$ c #A979E1",
"% c #C9C9D9",
"& c #F8F8F8",
"* c None",
/* pixels */
"********************************",
"********************************",
"********************************",
"********************O+@+..******",
"******************O+@#&#@@.*****",
"*****************O@O.O@.O+@.****",
"****************.+#**.O..O#+@***",
"***************.+#.**O.*+#+O+@**",
"***************.O+@.@+.+@+O...**",
"****************..+@..+@O..*****",
"******************..*+#O.*******",
"********************+#+.********",
"**************O****@#+.*********",
"**************+O**@&+.**********",
"**************@+.@&+.***********",
"*****@********#o@&+.************",
"*****.#*******O+#+.*************",
"*****.OO@#&***XO+.**************",
"******.+OO+@*$%XX.**************",
"******+O...@X%X  ***************",
"******O.***+XX *****************",
"******O.**O.+@@*****************",
"****  X *O+o.*+#****************",
"****$X$ O+o.***O#***************",
"****&%..oo.****O@***************",
"**** .@...****O+O***************",
"*****O&@.X$XOO+.O#**************",
"*****.#O %X ...*..@*************",
"******.  &$  *****.*************",
"********* %$X ******************",
"********************************",
"********************************"
};
