/* XPM */
static char *_633072800691[] = {
/* columns rows colors chars-per-pixel */
"32 32 11 1 ",
"  c black",
". c #353535",
"X c #464646",
"o c #606060",
"O c gray44",
"+ c #818181",
"@ c gray63",
"# c #B9B9B9",
"$ c gray85",
"% c #F8F8F8",
"& c None",
/* pixels */
"&&&&&&&&&&&&&&&&&&&&&&&&&&&&&&&&",
"&&&&&&&&&&&&&&&&&&&&&&&&&&&&&&&&",
"&&&&&&&&&&&&&&&&&&&&&&&&&&&&&&&&",
"&&&&&&&&&&&&&&&&#OXX&&&&&&&&&&&&",
"&&&&&&&&&&&&&&&&X &&  &&&&&&&&&&",
"&&&&&&&&&&&&&&&&& XX&O &&&&&&&&&",
"&&&&&&&&&&&&&&&&& &  & &X&X &&&&",
"&&&&&&&&&&&&#X&&#O &X& &XX+ &&&&",
"&&&&&&&&&&&&O   O# &&&&&X# &&&&&",
"&&&&&&&&&&&&X&X&   +&&&X+   &&&&",
"&&&&&&&&&&&&X&X &&& +&X+ &&&&&&&",
"&&&&&&&&&&&&& & X&&&  + &&&&&&&&",
"&&&&&&&&&&&&& O&&&&&X+ &&&&&&&&&",
"&&&&&&&&&&&&&&   &&X+  +&&&&&&&&",
"&&&&&&&&&&&&&&&&&&X+ &&  &&&&&&&",
"&&&&&&&&&&&&&&&&&X+ &&& &&&&&&&&",
"&&&&&&&&&&&&&&&&X+ &&&&&&&&&&&&&",
"&&&&&&+#&&&&&&&X+ &&&&&&&&&&&&&&",
"&&&&&&&X$&o&&&X+ &&&&&&&&&&&&&&&",
"&&&&&& XX#Xo&X+ &&&&&&&&&&&&&&&&",
"&&&&o+#$+X#%.+ &&&&&&&&&&&&&&&&&",
"&&&&&&  @o%o%.&&&&&&&&&&&&&&&&&&",
"&&&&&oXX %o% #.&&&&&&&&&&&&&&&&&",
"&&&&&X&&&  X## o&&&&&&&&&&&&&&&&",
"&&&&X&&&X+ %. @&&&&&&&&&&&&&&&&&",
"&&&& &&X+ & @o #&&&&&&&&&&&&&&&&",
"&&&&&& + &&X #  @&&&&&&&&&&&&&&&",
"&&&&& # &&&X @ &o&&&&&&&&&&&&&&&",
"&&&&&  &&&X &+&&&&&&&&&&&&&&&&&&",
"&&&&&&&& X&&&o&&&&&&&&&&&&&&&&&&",
"&&&&&&&&&&&&&&&&&&&&&&&&&&&&&&&&",
"&&&&&&&&&&&&&&&&&&&&&&&&&&&&&&&&"
};
