/* XPM */
static char *_633072879088[] = {
/* columns rows colors chars-per-pixel */
"32 32 13 1 ",
"  c black",
". c #573E00",
"X c #A12C00",
"o c #A16800",
"O c #E94600",
"+ c #F84F00",
"@ c #46B935",
"# c #60F04F",
"$ c #F0A900",
"% c #E1C102",
"& c #E9D902",
"* c #F8F002",
"= c None",
/* pixels */
"================================",
"================================",
"================================",
"==================%=============",
"================%o*o% ==========",
"===============%%***%% =========",
"===============o**XO*o =========",
"==============%%*X+$O*%=========",
"===============o*X+ $o ==o =====",
"===============%%*X++$==o$o ====",
"================%o%.++$X$o =====",
"================= % =+X$o ======",
"=====================X$o =======",
"====================o$o ========",
"===================o$o.o =======",
"==================o$o.o% =======",
"=================o$o o%.========",
"=========+X.@.==o$o ============",
"======= +X+.#@.o$o =============",
"======= = o$..o$o ==============",
"====== == =o.&.o  ==============",
"====== = ==.&O+.%% =============",
"===== o= ==+X+ .**% ============",
"=====.$ ==++X o$.% =============",
"===== .$.++X ==o&.==============",
"=======.X+X ==  o&.=============",
"=======.XX.=  ==&.==============",
"========  $ ===  ===============",
"==========.$o  =================",
"========== . ===================",
"================================",
"================================"
};
