/* XPM */
static char *_633072885231[] = {
/* columns rows colors chars-per-pixel */
"32 32 12 1 ",
"  c black",
". c #682C00",
"X c #464646",
"o c #B99100",
"O c #F8E902",
"+ c #B1C979",
"@ c #0089B1",
"# c #818181",
"$ c #B9D9D9",
"% c #F8F8E9",
"& c #F8F8F8",
"* c None",
/* pixels */
"********************************",
"********************************",
"********************************",
"**********************++********",
"*********************+%%+*******",
"********************%%##%+******",
"*******************%#%#%%# *****",
"******************%#+#+ooX *****",
"******************+%%.oOo%# ****",
"****************** ##X.o%#+%#***",
"***************** XXXX+%%#%#% **",
"***************** XXX+%+%%#+% **",
"*****************XXX+%# #%%%+ **",
"****************X#X+%# X #++ ***",
"***************X#X+&# XXX   ****",
"******** +%#**##X+&# XXX  ******",
"******** %#%**#X+&# #    *******",
"********.%+#**X+&# #  **********",
"******* O.#% X+&# #  ***********",
"*******X$o +X+&# ## ************",
"****** $@ * Oo#    *************",
"***** .$ * oOOX ****************",
"**** %oO  X$o +%#%#*************",
"**** +%. @$X * #+#% ************",
"***** .oO$@ * o.%%+ ************",
"****** &oO.  *$O.  *************",
"******.++o.O$$X ****************",
"*****.o. .+o. ******************",
"******.** +% *******************",
"**********  ********************",
"********************************",
"********************************"
};
