/* XPM */
static char *_633072890987[] = {
/* columns rows colors chars-per-pixel */
"32 32 13 1 ",
"  c #3E1A02",
". c #570060",
"X c #F80000",
"o c #F89902",
"O c #F8F84F",
"+ c #993ED1",
"@ c #F802E9",
"# c #C157F8",
"$ c #B9B9B9",
"% c #F8A9A9",
"& c #E981F8",
"* c #F8F8F8",
"= c None",
/* pixels */
"================================",
"================================",
"================================",
"================================",
"==============*****$============",
"==============*XXXX%**==Xo =====",
"==============*XXXXXX%*=oO =====",
"==============*XXXXXXX* OOOo ===",
"==============*XXXXXX%* OOoX ===",
"==============$%XXX**$ &+    ===",
"===============*XXX*X%*+ =======",
"===============*%X%$%XX* =======",
"================*** *X***=======",
"===================&+**=========",
"==================&+ =*=========",
"=================&+ ============",
"================&+ =============",
"==========O=O==&+ ==============",
"=======#&.=Oo=&+ ===============",
"=======..&OoO&+ ================",
"========&. =&+ =================",
"=====.%@. =&+ OoO===============",
"====.%+ ==&+ =oO================",
"====.@ ==&+ = O=O===============",
"====.X =&+ = .&.================",
"=====X+*+ ==.& & ===============",
"=====.OX$== @ .# ===============",
"=====*XO+ .+% ==================",
"=====*$.XX@% ===================",
"=========   ====================",
"================================",
"================================"
};
