/* XPM */
static char *_633072896535[] = {
/* columns rows colors chars-per-pixel */
"32 32 13 1 ",
"  c #352300",
". c #007000",
"X c #890000",
"o c #C90800",
"O c #F86046",
"+ c #00A100",
"@ c #D98100",
"# c #81E100",
"$ c #F8F800",
"% c #9100E1",
"& c #D989F8",
"* c #F8F8F8",
"= c None",
/* pixels */
"================================",
"================================",
"==================oO============",
"===============OOoXXoOO=========",
"===============OoXoOOoO ========",
"===============oXOOXOXo ========",
"==============oXooooXoOo========",
"==============OXOXOOXOoO========",
"===============oOOXXoO.+=&&%====",
"===============OoXoOOO#.&#+%====",
"===============OOXOoX+#+.+% ====",
"================  oO==+#.% =====",
"=====================&%#% ======",
"====================&##+ =======",
"===================&#.% ========",
"==================&#.% =========",
"============#====&%#% ==========",
"============+#==&%#+ ===========",
"==========+ .#=&##% ============",
"========%$++..%#+% =============",
"=======X$$@. *#%% ==============",
"=======X$X = @$.##==============",
"=======&%== O% ..+#=============",
"=====$=* = O% .+ ===============",
"=====@$@  O% =@++===============",
"======== O% =X$$================",
"=======*O% =%$$%================",
"=======@$ @*&XX ================",
"========  $    =================",
"==========@$====================",
"================================",
"================================"
};
