/* XPM */
static char *_633072902934[] = {
/* columns rows colors chars-per-pixel */
"32 32 13 1 ",
"  c #353535",
". c #686035",
"X c #B19100",
"o c #F8F808",
"O c #91894F",
"+ c #B1A968",
"@ c #0002A9",
"# c #01C1F0",
"$ c #E1D181",
"% c #D181F8",
"& c #C9F8F8",
"* c #F8F8F8",
"= c None",
/* pixels */
"================================",
"================================",
"==================$=====X=======",
"=================+*+==Xo========",
"===============oX=$ ==oX========",
"===============Xo=% @%====+=====",
"==============+= %#@% ===*.=====",
"=============$*$%#&# ===o. =====",
"==============+...#&#%*oXo======",
"================@% #  =o $$.====",
"================% =% =$o  .$====",
"==============Xo===* $.o $$.====",
"==============oX==+$.$+o +  ====",
"=============X====*.$ o.  ======",
"=================*O  o. ========",
"================*O =o. =========",
"===============*O =*. ==========",
"==========O*==*O =*. ===========",
"===========+ = * *. ============",
"=====+.=+*+ * *O*. =============",
"=====.***. O+*O . ==============",
"===.+*+* == *+*  ===============",
"====*O* = +* O +*===============",
"======O==.*+  + O===============",
"======O= $. =.* ================",
"=====O$ +. ==*+ ================",
"=======$. ==** =================",
"======$ $OO*+*.=================",
"====== =O  O*.+=================",
"===========*+===================",
"================================",
"================================"
};
