/* XPM */
static char *_632911396144[] = {
/* columns rows colors chars-per-pixel */
"32 32 72 1 ",
"  c #3F2503",
". c #3E2806",
"X c #412A04",
"o c #433007",
"O c #3F7702",
"+ c #3F7902",
"@ c #417B04",
"# c #437E08",
"$ c #786E2B",
"% c #7B732E",
"& c #7C7530",
"* c #7E7833",
"= c #817933",
"- c #7EBD07",
"; c #60AD43",
": c #6BB54D",
"> c #73B94F",
", c #6FB750",
"< c #74B654",
"1 c #75BA53",
"2 c #7BBD55",
"3 c #73B459",
"4 c #7CB65C",
"5 c #76BA59",
"6 c #7DBC5A",
"7 c #7FB862",
"8 c #7DC155",
"9 c #7EC15A",
"0 c #81C107",
"q c #C6EC10",
"w c #CBF310",
"e c #82BE56",
"r c #82BE5C",
"t c #B5B555",
"y c #B6BA57",
"u c #B6BA59",
"i c #B9BA59",
"p c #85BB61",
"a c #8ABE63",
"s c #82C456",
"d c #85C957",
"f c #8AC957",
"g c #84C35B",
"h c #8AC55D",
"j c #87C859",
"k c #8CCA5B",
"l c #94C75F",
"z c #91CC5D",
"x c #98CF5E",
"c c #93D05A",
"v c #86C161",
"b c #8BC462",
"n c #8DC962",
"m c #91C563",
"M c #93CA63",
"N c #96CD6C",
"B c #99CF6C",
"V c #99D163",
"C c #9E5CEC",
"Z c #9F57F3",
"A c #9F59F2",
"S c #0A8FE4",
"D c #0C92E4",
"F c #0892E8",
"G c #76C8F6",
"H c #E5E396",
"J c #E7ED9A",
"K c #EBEB9C",
"L c #EAE5A5",
"P c #EDECA3",
"I c #F2F1EF",
"U c #F4F5F1",
/* pixels */
"z665gccs28gkh559v96bap7ekh8gg52g",
"n652lzz>6gdhhr54555kr445sks8d62d",
"h51vlMh<6kghhhrr6ehMg3e6sks2d212",
"66hnhrreggehnnlhkfeksyfe2g82921g",
"6rmmeprar6rhMmmmVle2%Ktf52288819",
"6ammrrreeh6eMBMmllki2=K%&5*KJd1<",
"raaapprrgh66kMmvrr%Kt>=Kt%%i*kd<",
"paamarrhhr2rvMnvs1t=K%Ki%iHXokd8",
"ramVlp4egrrrknvbf%Kt=KieiK&Xh92k",
"maallhe4rh4hMgekke==Ki=iK$Xbg21j",
"mvr4kkhrrh6hn51dxzs$t%tK$XkMbg81",
"kvreshrrbv6g9139kzlh%iK$XeebNnd1",
"less8sf2av118,19rrrk@K@Xh612nNk8",
"kssf8sk12h:>818k63r@-@X4h61>5nMk",
"sfsssffdkk218,8cg30w@X2<5r911gMk",
"sks2dssdhhDD,1dcc0w@Xr22gar69kzz",
"6f8188>888dFG9hO0w@Xap7bnpahvvhg",
"5d828>:2:;8gFFa#@@ lbbbbapabhr6f",
"6626dd1<:yKKuDiUOXXhnbbap7bbvhss",
"8212kke%JJ&gK&Iu.hhrvba779hnvhk2",
"9d3<kCZLi%19%$XDF69Mvrhh66kkhhk>",
"ddg6s@@Cg88+-XKiSG6sh6eer6bfggf8",
"8ckbhe0ff;+-@XgP.DD22g1gg6gdsgfs",
"2dnnke0>e;-+Xe*KX6D298hMr2sf88dd",
"8sdnNb;O0w+.8&Ku22j92eMBb<eg22hf",
"d929NN5Oq+.d9iKd>sj82rMmp66egjff",
"v611gMrX.+88CL%12sg9gbmr<6ehnhfh",
"6v511hMz8#--@A16gkg6vNa66hnnnvhk",
"2p621gMcj188#Chvbn969bvrrnkbrpav",
"grreggbkgj88fkd66695ghvhkvhg56ra",
"Mgrmmhghhgs2gkv5,9982gvmbhhhg6rp",
"xlmMkgjhg6g22nv339dsghnbrhkhg21a"
};
