/* XPM */
static char *_632810811086[] = {
/* columns rows colors chars-per-pixel */
"32 32 12 1 ",
"  c #3E2300",
". c #3E7902",
"X c #79702C",
"o c #81C107",
"O c #D1F811",
"+ c #B9B957",
"@ c #A157F8",
"# c #0791E9",
"$ c #79C9F8",
"% c #F0F0A1",
"& c #F8F8F8",
"* c None",
/* pixels */
"********************************",
"********************************",
"********************************",
"*********************+**********",
"********************X%+*********",
"*******************+*X%XX*X%%***",
"******************X%+*X%+XX+X***",
"******************+X%X%+X+%  ***",
"*****************X%+X%+*+%X ****",
"******************XX%+X+%X *****",
"*******************X+X+%X ******",
"********************X+%X *******",
"********************.%. ********",
"*******************.o. *********",
"******************oO. **********",
"**********##*****oO. ***********",
"***********#$**.oO. ************",
"************##*... *************",
"*********+%%+#+&.  *************",
"*******X%%X*%X&+ ***************",
"*****@@%+X**XX ##***************",
"*****..@***.o %+#$**************",
"******o***.o. *% ##*************",
"******o**.o. *X% *#*************",
"******..oO. *X%+****************",
"*******.O. **+%*****************",
"*******  .**@%X*****************",
"*********.oo.@******************",
"************.@******************",
"********************************",
"********************************",
"********************************"
};
