/* XPM */
static char *_632992133047[] = {
/* columns rows colors chars-per-pixel */
"32 32 117 2 ",
"   c #3B342F",
".  c #2F2F3B",
"X  c #323232",
"o  c #733E1D",
"O  c #793F1E",
"+  c #6E3B2B",
"@  c #733F21",
"#  c #76411D",
"$  c #7C411C",
"%  c #7E491E",
"&  c #6F4222",
"*  c #6F442C",
"=  c #744223",
"-  c #7A4224",
";  c #79482B",
":  c gray31",
">  c #574D47",
",  c #5C544F",
"<  c #4F4F5F",
"1  c #575757",
"2  c #595654",
"3  c #545853",
"4  c #5E5D53",
"5  c #53535C",
"6  c #59565A",
"7  c #64584D",
"8  c #605A53",
"9  c #515160",
"0  c #706F6E",
"q  c #73716D",
"w  c #6D6D72",
"e  c gray44",
"r  c #7C7C7C",
"t  c #854217",
"y  c #8A4516",
"u  c #844418",
"i  c #8E5A16",
"p  c #BE4D04",
"a  c #BD4D0F",
"s  c #B65A00",
"d  c #B84E13",
"f  c #C65202",
"g  c #CA5402",
"h  c #CB5D01",
"j  c #C45B17",
"k  c #C45C18",
"l  c #E37C06",
"z  c #F07F02",
"x  c #048A02",
"c  c #088901",
"v  c #068908",
"b  c #01E700",
"n  c #01EA00",
"m  c #1AEF00",
"M  c #01F000",
"N  c #EC8304",
"B  c #E4820B",
"V  c #F28303",
"C  c #F58D02",
"Z  c #F89302",
"A  c #DFDD1A",
"S  c #EED602",
"D  c #E6D30A",
"F  c #E8D508",
"G  c #E6D90A",
"H  c #EEDF08",
"J  c #F5DA01",
"K  c #F8D900",
"L  c #E3DB12",
"P  c #EEE103",
"I  c #F2E101",
"U  c #F8E514",
"Y  c #0A0AB6",
"T  c #0405BC",
"R  c #060DBD",
"E  c #0A0CBC",
"W  c #0712BB",
"Q  c #0813BD",
"!  c #1717B1",
"~  c #0303C2",
"^  c #0907C2",
"/  c #000CC4",
"(  c #0A08C1",
")  c #0713C6",
"_  c #0214CA",
"`  c #011ECA",
"'  c #0E41EE",
"]  c #164DE6",
"[  c #1C57EB",
"{  c #1A59ED",
"}  c #0E4DF2",
"|  c #1654F3",
" . c #245AE4",
".. c #2158E8",
"X. c #007DE7",
"o. c #1661F7",
"O. c #9E66EC",
"+. c #9E68EC",
"@. c #9766F5",
"#. c #9B64F5",
"$. c #9B6CF4",
"%. c #A067F4",
"&. c #0286EC",
"*. c #0996E4",
"=. c #0593ED",
"-. c #0890EC",
";. c #46B5EC",
":. c #57D5EC",
">. c #49CBF6",
",. c #4CD2F7",
"<. c #4DD4F8",
"1. c #50D4F5",
"2. c #51D5F8",
"3. c #5CD7F8",
"4. c #5CD9F8",
"5. c #F4E7D1",
"6. c #F4E9D6",
/* pixels */
"1 1 1 1 1 1 : X e 1 1 e 1 1 1 1 1 1 e 1 1 1 : X e 1 1 1 1 1 1 1 ",
"1 e 1 1 1 : X e X e 1 1 1 1 1 1 1 1 1 1 1 : X e X e 1 1 e 1 1 1 ",
"1 1 1 1 : X r 1 e X e 1 1 1 e 1 1 1 1 1 : X r 1 e X e 1 1 1 e 1 ",
"1 1 1 : X r 1 1 1 e X e 1 1 e 4 G D B = X r 1 1 1 e X e 1 1 1 1 ",
"1 1 : X r 1 1 1 1 1 e X e 1 8 B h i J l ; 1 e 1 1 1 e X e 1 e e ",
"1 : X r 1 1 1 e 1 1 1 e X q 2 t u N C f @ 1 1 9 E Y Y ! X e 1 1 ",
": X r 1 1 1 1 1 1 e 1 1 e X 0 2 > y f $ 7 B + Q X./ -.;.! X e 1 ",
"X r 1 1 e e 1 1 1 1 1 q B = X :   f V p # u + ) >.' ` -.Y e X : ",
"e 1 1 1 1 1 1 1 e 1 4 F g # :   k 5.K z f l * &.| _ &.} Y 1 : X ",
"X e 1 1 1 e 1 1 1 e 4 I t z O j 6.U C f t a Y o.>.&./ E 9 : X e ",
"e X e 1 1 1 1 1 1 1 4 Z S V g C U Z V $ 5  .>.&.) W < 9 : X e 1 ",
"1 e X e 1 1 1 q 1 1 2 u g g t g C f $ w { ,.=.W < 5 1 : X r 1 1 ",
"1 1 e X e 1 1 1 1 1 :   $ $ , t f O w [ ,.=.W 5 1 1 : X r 1 1 1 ",
"e 1 1 e X e 1 1 1 : X r 2 7 B O V d [ ,.-.) 9 e 1 : X r 1 1 e 1 ",
"1 1 1 1 e X e 1 : X r 1 2 2 u f - ..,.=.Q . e 1 : X r 1 1 e 1 1 ",
"1 e 1 1 1 e X : X r 1 1 e 2 2 6 [ ,.=.Q 5 e X : X q 1 1 1 1 1 1 ",
"1 1 w 1 1 1 : X e 1 1 1 1 1 5 { 2.=.Q 5 1 1 : X e 1 1 1 1 e 1 1 ",
"1 1 2 1 1 : X e X e 1 e % L { <.=.R 5 1 1 : X e X e 1 1 1 1 1 1 ",
"e 1 1 1 : X T T R ] e 3 x m A =.R 5 1 1 : X r 1 e X e e 1 1 1 1 ",
"1 1 1 3 X ( @.1.=.<.] $ s M m L 5 1 1 : X r 1 1 1 e X e 1 1 1 1 ",
"1 1 : X r ~ 3.$.= = & c J s c % 1 1 : X r 1 1 e 1 1 e X e 1 1 1 ",
"1 : X w T #.$.- 1 2 c n c $ 1 2 1 : X e 1 1 1 1 1 e 1 e X e 1 1 ",
": X r 1 ~ %.- 1 1 x b x = ] e 1 : X r 1 1 1 1 1 1 1 1 1 e X e 1 ",
"X r w T ~ #.$ 3 x b x @ R :.o : X r 1 1 1 1 1 1 1 1 1 1 1 e X : ",
"e 1 6 @.~ #.o x b x # 5 ~ *.# X e 1 1 1 e 1 e 1 1 1 1 1 1 1 : X ",
"X e 1 ^ #.O x b x # 5 E $.:.o q X e 1 1 1 1 1 1 1 e 1 1 1 : X e ",
"e X q H x M n x = ~ ^ $.4.+.- 1 e X e 1 e 1 e 1 1 1 1 1 : X r 1 ",
"1 e X T T x n v %.#.#.O.# - 1 1 1 e X e 1 1 1 1 e 1 1 : X r 1 1 ",
"1 1 w T P T v +.O O O O r 1 e 1 1 1 e X e 1 1 1 1 1 : X e 1 1 1 ",
"1 1 1 w T T P - O.O X r 1 1 1 1 1 e e e X e 1 1 1 : X r 1 e 1 1 ",
"1 1 1 1 w X e 1 : X r 1 e 1 1 1 1 1 1 1 e X e 1 : X e 1 1 1 e 1 ",
"e 1 e 1 1 e X : X q 1 1 1 1 1 1 e 1 1 1 1 e X : X r 1 1 1 1 1 1 "
};
