/* XPM */
static char *_632989355434[] = {
/* columns rows colors chars-per-pixel */
"32 32 25 1 ",
"  c black",
". c #060606",
"X c gray4",
"o c #151515",
"O c gray11",
"+ c #232323",
"@ c gray17",
"# c gray18",
"$ c #323232",
"% c #373737",
"& c gray22",
"* c #3F3F3F",
"= c gray26",
"- c gray27",
"; c #4B4B4B",
": c gray30",
"> c #505050",
", c #555555",
"< c gray36",
"1 c gray37",
"2 c gray39",
"3 c gray40",
"4 c DimGray",
"5 c #6C6C6C",
"6 c #727272",
/* pixels */
"                                ",
"##%###%&%O#$%#$#=o%&%###%##%$#O%",
"%&>;#%*>=O>:&&&;>##>=&$->=$%:>O=",
"=&>;$;,>=O>>--->>##>,:&->=*->:O=",
"#;;$#$=>X;:&###%:>O;-%##-:%#*;:X",
";;;;;;;;X;;;;;;;;;O=;;;;;;;;;;;.",
">,,>,>>X>,,,>>>,>,,X>>>,>,>,,>>,",
"6666666:66666666666;666666666666",
"################################",
"X;;&&;&&>=*%$ +%&=;*&==%>=O$&**>",
"&=%#;>%%&;%&.&o$&==&$::$&**X&%;&",
"*:-$;>&=>:*&.%o$&;>-$::$-;=.&*:,",
"-%#=:*##*=%.&:*.&=*##%:-#$-&.%=&",
";;;;;;;:;;*.;;;X&;;;;;;;;;;;.=;:",
">>,,>>,>>>+;>,>,X,>>>,,>>,,>;O>,",
"6666666666,56666:666666666665,66",
"################################",
":**.;;&>%==%*>=%&;&>%=:X&=;*%==%",
"*;o#%$%&$::$%%%#;>&%%$%%.==&$::$",
">=o#;*&-$::$;>;$;>&==%;&.*>-$:;$",
"&#+;=%-$;:&=>&;;$::$-**;#O*>=%:;",
";O#>#*#=:*##&:*##%>-#%%:=o*&##*>",
";+>::;;;;;;;:>::;;;:;;;;>%$;;;;;",
";O,>>,>,>>,>>,>,>,>>>>>,>$%,>,>>",
":666666666665<666666666663266666",
"X2;,21,>:-=%$@:&&-:,:13,;@-*&*->",
"X2:565>>;11>#@::>5:::566>#-*:<1;",
"o33,%;5:*<1=*@,%5::=6:&>5%;;*11*",
"X33>5-12=&1,$#>>5%*12-2>5%-=,<%=",
"o5>5>*>:661-;#1-<66>>=-5:%-,;166",
"X3>;%:==31::*@1:;13:*:&;>$;:,:13",
"X<->>==>,>,:%@,;>>,:=*:>:+-;:>,:"
};
