/* XPM */
static char *_632989340936[] = {
/* columns rows colors chars-per-pixel */
"32 32 8 1 ",
"  c black",
". c gray18",
"X c gray22",
"o c gray27",
"O c gray29",
"+ c #535353",
"@ c #646464",
"# c #727272",
/* pixels */
" .Xo.O+#. XXOO+#.+X+XO++o       ",
"X Xo.O+#.X  XO+#.XXo+XO+#XXoX+Oo",
"oX +XO+#.XXX  +#.X..o.O+#X+X+o+O",
"++o OO+#.XXXXX o.XOO..O+#XO##+O+",
"OX.. O+#.OXoXO+#.+++O.O+#o#XX#++",
"OOOOO +#.X++OO+#.XOO+oO+#o+#X#@+",
"++++++ #.+X+XO+#.X..O+O+#+OXo#@+",
"#######o.XXo.O+#.+Xo.oO+#++o@+o+",
"........ X...O+#.XXoo.O+#+o#@+Xo",
"XX+XX+X+X OO.O+#.X..o.O+#+@@oO+X",
".O+O.XXOXX +oO+# +Xo.oO+#@#XoXoo",
".O+O.oo+X.X +O+#. .Oo.O+#@#X#+X+",
"..o+o..XOX.X O+#.X. O+O+#+#+O#O+",
"OOOOOOOOOOXXO +#.XXX .++#O+##++O",
"++++++++++++++ #.OXXX. +#oO+++OX",
"###############o.X++OXO ########",
"................ +X+XOO+O       ",
"XX+O XOX+XXX+XX+X Xo+XO+#XXoX+Oo",
"X.XXX X+XX.O+O.XX. .o.O+#X+X+o+O",
"o.oOX .++o.O+O.oo.o ..O+#XO##+O+",
"oo.oOX OX+o.O+O.oo.o .O+#o#XX#++",
"..o.+O .OX...o+o..o.+ O+#o+#X#@+",
"OOOOO++ +OOOOOOOOOOOO+.+#+OXo#@+",
"+++++++ +++++++++++++++O#++o@+o+",
"#######O###############O#+o#@+Xo",
"++@@+Oo #XXXoo++++@@+Oo #+@@oO+X",
"o@###+O #X+O#+O+o@###+O #@#XoXoo",
"#@XX+#+ #oX#X#Xo#@XX+#+ #@#X#+X+",
"@oo#O#+ #X+#XXo@@oo#O#+ #+#+O#O+",
"+OX+#++ #+o+###++OX+#++ #O+##++O",
"X+oXO+O #O+O+@@oX+oXO+O #oO+++OX",
"oXo++OX #oO+++++oXo++OX ########"
};
