/* XPM */
static char *_632989369779[] = {
/* columns rows colors chars-per-pixel */
"32 32 8 1 ",
"  c black",
". c gray18",
"X c gray22",
"o c gray27",
"O c gray29",
"+ c #535353",
"@ c #646464",
"# c #727272",
/* pixels */
"oX+@#o+#+O.ooXX.#+O...X.#+OO+oX ",
"X+Oo@@+#+O.o..X.#+O.OOX.#+OX+X .",
"ooXoX#@#+Oo.oX+.#+Oo+++.#+O.o XX",
"+X+#X#@#+O.oOXO.#+O+OOX.#+O. +oo",
"+O#O+#+#+O+OXX .#+Oo..X.#+O OX..",
"O++##+O#++OX  X.#+O.oX+.#+ OOOOO",
"XO+++Oo#++  .XO.#+O.oXX.# ++++++",
"       O  .O++X.#+OX+O+.o#######",
"########++OX+X+.#+OOXXX ........",
"oO+XoXX#+OX+oXX.#+OX.X XX+XOXXX ",
"O+o+X+X#+O.o..X.#+X.X O.XX+XXX X",
"+O+##OX#+O..OOX.#+XX +O.o++oXX X",
"++#XX#o#+O.O+++.#+O +o...XOXX XO",
"+@#X#+o#+Oo+OOX.#+ OOOOOOOOOX OO",
"+@#oXO+#+O+O..X.# ++++++++++ +++",
"+o+@o++#+Oo.oX+.o###########o###",
"oX+@#o+#+O.ooXX ..... ..........",
"X+Oo@@+#+O.o.. +XOXX +XX+XX+XXX+",
"ooXoX#@#+Oo.o XX+XX..X.XX.O+O.XX",
"+X+#X#@#+O.o .o++XX Oo.oo.O+O.o+",
"+O#O+#+#+O+ .o+XOX Oo.oo.O+O.o+X",
"O++##+O#++ ...XOX..+.o..o+o...XO",
"XO+++Oo#+.OOOOOOO +OOOOOOOOOOOO+",
"       OO+++++++ +++++++++++++++",
"###############O###############o",
"#oO+@@++++ooXXX #oO+@@++++ooXXX ",
"#O+###@o+O+#O+X #O+###@o+O+#O+X ",
"#+#+XX@#oX#X#Xo #+#+XX@#oX#X#Xo ",
"#+#O#oo@@oXX#+X #+#O#oo@@oXX#+X ",
"#++#+XO++###+o+ #++#+XO++###+o+ ",
"#O+OXo+Xo@@+O+O #O+OXo+Xo@@+O+O ",
"#XO++oXo+++++Oo #XO++oXo+++++Oo "
};
