/* XPM */
static char *_632989376642[] = {
/* columns rows colors chars-per-pixel */
"32 32 28 1 ",
"  c black",
". c #070707",
"X c #090909",
"o c gray4",
"O c #111111",
"+ c #151515",
"@ c gray11",
"# c #1D1D1D",
"$ c #232323",
"% c gray17",
"& c gray18",
"* c #313131",
"= c #373737",
"- c gray22",
"; c #3F3F3F",
": c gray26",
"> c #464646",
", c #4B4B4B",
"< c gray30",
"1 c #505050",
"2 c #555555",
"3 c #585858",
"4 c gray36",
"5 c gray39",
"6 c #646464",
"7 c gray42",
"8 c #6C6C6C",
"9 c #727272",
/* pixels */
" =::XX19&1-2-,19&-**,1,291<::961",
" ###<,29&;,<:,29&:<<<;,19>44-942",
" &11<,19&;=;-;#2&:<<-&<19;3444<2",
" *,1-,29&---..,8&-**:&,29-1;3,1,",
" =->&,19&*X.-,29&;->1-,19;;,;2<<",
" &=-=,29&#;:>,19&,:2;:*=5>>>>,>>",
" &::<,19&:;,*,29&::-#O*=5%*===&$",
" =11>,29&<=>&,19&-..*:219,18811,",
" &>>&,19*-**>,19&X=-,<<19291<8,1",
" &*=&,19&:<<<,29&<-,-=,2959-5,;<",
" &-<*,19&:<<-,29&:*=;=,19371>><;",
" -:2,<29&-**&<19&-=:>&<191,951-:",
" -12,:X<&-->&,19&1=:*>,2921>42,1",
" =&&@#29&,:2;,29&---<<,19<<<:962",
" O&&<,<9&>:,;,19&,11<=<19>61-932",
" :11<,19&-----X<&-,,*&,29-<882<1",
" *,<=,29&-**XX29&-&*>&,19-1-1>1,",
" *=>&<19&$++;,19&:-,,:<191<2<532",
" &=>&,19& =-,,29&2-1-,213&%%%%&%",
" ==>&,29&*..-,19&--,1-,28**;*,:-",
" *,1-,19&---..,8&-**:&,19-1:2>1,",
" &11<,29&;=;-;#2&:<<-&,29;3445<1",
" ###<,19&:,<>,29&:<<1;,19>44-951",
" =::XX29&1-1-,19&-**,1,191,;:962",
" -121,X,&-=:&,29&1=>*:,2921<62>1",
" =:1>,19&---&,19&-*;>&,2911831::",
" &-,*,19&,11-,19&,=-=-,1948,>;,;",
" &&*&,29&-,,1<29&,=,:*,1969-81-1",
" &,,*,19&=&*:,19&.**>1<29<93<8<1",
" =11,,19&,->&,29&;+O$&129<16621>",
" &--,,29&<:<*,29&:,:&#$#96666854",
" &=:&,29*X--,,19&<;1->,<<XOOXXOX"
};
