/* XPM */
static char *_632989385629[] = {
/* columns rows colors chars-per-pixel */
"32 32 28 1 ",
"  c black",
". c #060606",
"X c gray4",
"o c #0E0E0E",
"O c #111111",
"+ c #151515",
"@ c gray11",
"# c #1D1D1D",
"$ c #232323",
"% c gray17",
"& c #2F2F2F",
"* c #323232",
"= c #373737",
"- c #3A3A3A",
"; c #3F3F3F",
": c #434343",
"> c gray28",
", c #4B4B4B",
"< c gray31",
"1 c gray32",
"2 c #565656",
"3 c #585858",
"4 c gray36",
"5 c gray39",
"6 c gray40",
"7 c gray42",
"8 c #6D6D6D",
"9 c #727272",
/* pixels */
"ooooooo<,,>-1-<&82,>--X&91,&:=& ",
"45666559###&:,;&91,*<:,&91>,==& ",
":11661>912&$OO:&91,&:=>&91,,<1* ",
"1,8<28191,1>**.&91,:*&-&91,*,,& ",
"1-<7=9591,*:,=,%91,<,,-&91,&*&& ",
";,;>,7491,-=-*,&91,-1<>&91,*,=& ",
";:1281291,&>-==&91,&===&91,:1;* ",
"1:15,1191>:&>=<&91,&:=-&,X,111- ",
"169::,191,<,&*=&91,-1-<&91.X:;= ",
"149-35>91,-<<,:&91,:<>;&91,<#@# ",
"1<4433;91>&-,<;&2#;-;=;&92,,1<& ",
",1>3;1=91,&:**=&7,..-==&91,-1,* ",
"-:,&-**81<-<>=-&91,-..*&91,%>-= ",
"%%%%%%%211,=1=1&91,,=- &91,&:=& ",
"224<2<<91<;,,=:&91,;O+$&91,&>=* ",
",1,<-1=91,&>*&=&91X.**=&91,=<,& ",
"1,277<-91,&&,,-&,X---=-&81,,11; ",
"229=<6>91,=<<<,&91,;,::&91,<&&O ",
"169><,191,<,===&91,;1:,%91#@&&= ",
"1,33:1191,>*:=<%91,&>=-&<X:><1- ",
":-158,191,&::==&91,&&&=&91,>1:= ",
"-<::17291,=-=*:&91,=,<:&91,*<=& ",
"<-,4-9591,=;,=<%91,<<<:%91>&=*& ",
"1,81<9291><,-=.&91,>&*=&91,&>>& ",
",11881,911:*..-&91,&>=<&92,>11= ",
"$&**=&%5=*O@-::&91,*,;:&91,<;;& ",
">>>>>>>5=*;;1:>&91,:;;#&91,=;*& ",
",<2;,;;91,-<>--&91,-..&&91,&:-= ",
",1,3;1-91,&:&*=&7,..===&91,-1,* ",
"1<4333;91,&=<,:&2#;-;=;&91,<1<& ",
"149=44>91,-<,<:&91,:<,;&91,,@## ",
"169::,<91,1,*&=&91,-1-<&91X.::= "
};
