/* XPM */
static char *_632989405451[] = {
/* columns rows colors chars-per-pixel */
"32 32 27 1 ",
"  c black",
". c #070707",
"X c #090909",
"o c #0E0E0E",
"O c #111111",
"+ c #151515",
"@ c gray11",
"# c #1D1D1D",
"$ c #232323",
"% c gray17",
"& c #313131",
"* c #343434",
"= c gray22",
"- c gray24",
"; c #434343",
": c gray28",
"> c gray29",
", c gray30",
"< c #535353",
"1 c #565656",
"2 c gray35",
"3 c gray37",
"4 c gray39",
"5 c #646464",
"6 c DimGray",
"7 c gray43",
"8 c #727272",
/* pixels */
"<<<>>:$:<,-;<<1<>1%=><<<<-;<<;2o",
"53,<<:%<>=,->52><1%;<,35;;,=>,5o",
"883:1:*<7>;<1882:4%>:388<,;,715O",
";=31;:*7,4;44-=6,,%&13=;52:6<55o",
"-32;>:*7,=17:,,7=1%--33-,6>*156o",
",32<-:%<886><,5,<,%&<23><<787,4o",
"<;-=-:%>142<<,:==,%&*-:<<<34<>4o",
"8888845888888888882788888888888,",
"<<<<<&*<<<<<<<<<<<<1<<<<<<<<<<@>",
">>>>,**1>>>>>>>>>,<,>>>>>>>>>1@>",
"<=%%=-O;,=*%>,=%%;>=%%-<;%-&<&@>",
"><=:<-@&>=->&,,&:>*<:=,,%:=;>$%=",
"&,,&>1=X=>=;;*<>%>1:&,,&:-=>&O:<",
"&,,&*;;.==&===,,&==*&,,&=**=&+>=",
"=;;=-,:-X,;=<=>-=:1==;:=<*>,X--<",
"%&%%%%%%%&%&%%&%%%&%&%%%&%%&%&%%",
"881688888888888>8888618888888888",
"<<$><<<<<<<<<<1o1<<<:$1<<<<<<<<<",
">>-X>>,>>>>>>>>=X>>>.->>>,>>>,>>",
"=;=X=;&%>,=&%--=.;>=X*:=%%-<;%*:",
"<,-=.;>:&,,&><>-&+=.=-,<;=<>&:,-",
"=>==.--=&,,&*;;*&+=X==>-*=,,%=:=",
"<-;*&$;<*:;*->;-*$ &=-;<==>==>>X",
"%&%&&%%%&%&%%&%%%&%&%&%%%&&%&&%%",
"888888888888>88888888888,8888888",
"<1<1<<<<<<<<X1<<<<<<<<<<X1<1<<<<",
"X>>>>>>>>>>>;@>>>>>>>>>X>>>>>>>>",
"X,,=%*,:&%*::@,,=%&%=,,.<;&%&>>&",
";@,1>--<:*,<<&%<<:::<,@;<<>&>,=;",
"-@<>=*-<:&=:<%%<>*=*,1@;<;*&><=*",
"*@&&*&%=%&&*=*O;&*%=&%@=**%&&*&%",
"                                "
};
