/* XPM */
static char *_632989399722[] = {
/* columns rows colors chars-per-pixel */
"32 32 8 1 ",
"  c black",
". c gray18",
"X c gray22",
"o c gray27",
"O c gray29",
"+ c #535353",
"@ c #646464",
"# c #727272",
/* pixels */
"######## XO++oXo+++++Oo# XO++oXo",
"XO+++Oo# O+OXo+Xo@@+O+O# O+OXo+X",
"O++##+O# ++#+XO++###+o+# ++#+XO+",
"+O#O+#+# +#O#oo@@oXX#+X# +#O#oo@",
"+X+#X#@# +#+XX@#oX#X#Xo# +#+XX@#",
"ooXoX#@# O+###@o+O+#O+X# O+###@o",
"X+Oo@@+# oO+@@++++ooXXX# oO+@@++",
"oX+@#o+#O###############O#######",
"+o+@o++#O+++++++++++++++ +++++++",
"+@#oXO+#+.+OOOOOOOOOOOO+ ++OOOOO",
"+@#X#+o#+O +.o..o+o...XO. O+.o..",
"++#XX#o#+O. o.oo.O+O.o+XO XOo.oo",
"+O+##OX#+O.. o.oo.O+O.o++. XOo.o",
"O+o+X+X#+O.o. .XX.O+O.XX+X XXX.X",
"oO+XoXX#+OX+oX X+XX+XXX+XOX O+XX",
"       O+OOX+X+ ................",
"######## OXO++X.o###############",
"XO+++Oo#+ .XXXO.# ++++++++++++++",
"O++##+O#++. XXX.#+ OXXOOOOOOOOOO",
"+O#O+#+#+O+O .X.#+O X.XOX..o+o..",
"+X+#X#@#+O.oO. .#+O+ X.X+oo.O+O.",
"ooXoX#@#+Oo.oX+ #+Oo+ XXOXX.O+O.",
"X+Oo@@+#+O.o..X.#+O.OO X+X+XX+XX",
"oX+@#o+#+O.ooXX.#+O...X ........",
"+o+@o++#+Oo.oX+.#+O.oXX.o#######",
"+@#oXO+#+O+O..X.#+OX+X+.# ++++++",
"+@#X#+o#+Oo+OOX.#+OO++X.#+ OOOOO",
"++#XX#o#+O.O+++.#+OXoXO.#+O ..XO",
"+O+##OX#+O..OOX.o XXXXX.#+OO o++",
"O+o+X+X#+O.o..X.#+  XXX.#+OX+ Xo",
"oO+XoXX#+OX+oXX.#+OX  X.#+O.oX X",
"       o++OX+X+.#+OOXX .#+O.oX. "
};
