/* XPM */
static char *_632989392860[] = {
/* columns rows colors chars-per-pixel */
"32 32 8 1 ",
"  c black",
". c gray18",
"X c gray22",
"o c gray27",
"O c gray29",
"+ c #535353",
"@ c #646464",
"# c #727272",
/* pixels */
" oO+++++oXo++OX# oO+++++oXo++OX#",
" O+O+@@oX+oXO+O# O+O+@@oX+oXO+O#",
" +o+###++OX+#++# +o+###++OX+#++#",
" X+#XXo@@oo#O#+# X+#XXo@@oo#O#+#",
" oX#X#Xo#@XX+#+# oX#X#Xo#@XX+#+#",
" X+O#+O+o@###+O# X+O#+O+o@###+O#",
" XXXoo++++@@+Oo# XXXoo++++@@+Oo#",
"o###############O###############",
"+++++++++++++++ +++++++OO       ",
"+OOOOOOOOOOOO+ OOOOOOO.+#oO+++OX",
"OX...o+o..o.+..XOX... ++#O+##++O",
"X+o.O+O.oo.oO XOX+o. +O+#+#+O#O+",
"+o.O+O.oo.oO XX++o. o.O+#@#X#+X+",
"XX.O+O.XX.X..XX+XX o.oO+#@#XoXoo",
"+XXX+XX+XX+ XXOX+ ..o.O+#+@@oO+X",
".......... ..... XXoo.O+#+o#@+Xo",
"###o###########o.+Xo.oO+#++o@+o+",
"+++ ++++++++++ #.X..O+O+#+OXo#@+",
"OO XOOOOOOOOO +#.XOO+oO+#o+#X#@+",
"OX XXOX...o+ O+#.+++O.O+#o#XX#++",
"X XXo++o.O+ XX+#.XOO..O+#XO##+O+",
"X XXX+XX.O X.X+#.X..o.O+#X+X+o+O",
" XXXOX+XX X.XO+#.XXo+XO+#XXoX+Oo",
"........ XXXOO+#.+X+XO++########",
"#######o.+O+XO+#.X++O.  O       ",
"++++++ #.XXo.O+#.OX.  ++#oO+++OX",
"OOOOO +#.+Xo.O+#.X  XO++#O+##++O",
"..XO O+#.X..oO+#. XXO+O+#+#+O#O+",
"oo+ .O+#.XOO+O+#.OXOo.O+#@#X#+X+",
"XX o.O+#.+++oO+#.+Xo.oO+#@#XoXoo",
". X+XO+#.XOO.O+#.X..o.O+#+@@oO+X",
" Xo+OO+#.X...O+#.XXoo.O+#+o#@+Xo"
};
