/* XPM */
static char *_633008366906[] = {
/* columns rows colors chars-per-pixel */
"32 32 35 1 ",
"  c black",
". c gray8",
"X c #183828",
"o c #212938",
"O c #573600",
"+ c #753E2D",
"@ c #6D502E",
"# c #2A3B4D",
"$ c #292675",
"% c #415A76",
"& c #CC1602",
"* c #DD1802",
"= c #F01A02",
"- c #815E36",
"; c #956B3E",
": c #FD4732",
"> c #AC7C48",
", c #FDD02C",
"< c #FFEB3D",
"1 c #D48C52",
"2 c #4690E9",
"3 c #72C1C8",
"4 c #808080",
"5 c gray58",
"6 c gray60",
"7 c #EBB385",
"8 c #FFD9AD",
"9 c #C0C0C0",
"0 c #CDCDCD",
"q c #CECECE",
"w c LightGray",
"e c gray90",
"r c #F8FFEE",
"t c white",
"y c None",
/* pixels */
"yyyyyyyyyyy  yy      y     yyyyy",
"yyyyyyyyy  @@  @@@@Oy @@@Oyyyyyy",
"yyyyyyy  @@--@@----OOO-- yyyyyyy",
"yyyy   @@--;>----OO-;--  yyyyyyy",
"yyyyy @-->>>>>>>--OO-;-@@  yyyyy",
"yyyyyy @-;>>>;>>;;-->;---@@ yyyy",
"yyyyy @-;;;.-;>>>;->>> @@  yyyyy",
"yyyy --;;-.@-;@>>@ ;>-@  yyyyyyy",
"yyy @-;;-.@-;O;>-@  ;-@ yyyyyyyy",
"yyyy @---.@-O;;-- + --@ yyyyyyyy",
"yyyyy @-.@-;.;--@ ++ -@ yyyyyyyy",
"yyyyy.@@.@-..--@ 5  O-@ yyyyyyyy",
"yyyyyy.@.@.7O-@ 1w  O@  yyyyyyyy",
"yyyyyy.@@..7O-@ 7w227 1 yyyyyyyy",
"yyyyyyy.@@O..@ 17w33888 yyyyyyyy",
"yyyyyyy.@@@O.@ 78888888 yyyyyyyy",
"yyyyyyyy O    788888rr1 yyyyyyyy",
"yyyyyyyyy %%%%  188871 yyyyyyyyy",
"yyyyyyyy %%..%%%  ++  yyyyyyyyyy",
"yyyyyyyy %.q0.  ##oX4yyyyyyyyyyy",
"yyyyyyyyy.qte0.###9& 0yyyyyyyyyy",
"yyyyyyyy qettq.###0* 9yyyyyyyyyy",
"yyyyyyyy 04+XX oo#9= yyyyyyyyyyy",
"yyyyyyyy 4+1qeqee.0= yyyyyyyyyyy",
"yyyyyyyy +170teet.&* yyyyyyyyyyy",
"yyyyyyyy  +1.eoq0.$6 yyyyyyyyyyy",
"yyyyyyyy &  .00..=&& yyyyyyyyyyy",
"yyyyyyyy &==o.. =:=& yyyyyyyyyyy",
"yyyyyyyy o&&====::=& yyyyyyyyyyy",
"yyyyyyyyy   178871  yyyyyyyyyyyy",
"yyyyyyyyyyyy <<,, yyyyyyyyyyyyyy",
"yyyyyyyyyyyy699996yyyyyyyyyyyyyy"
};
