/* XPM */
static char *_633008375918[] = {
/* columns rows colors chars-per-pixel */
"32 32 35 1 ",
"  c black",
". c gray8",
"X c #183828",
"o c #212938",
"O c #573600",
"+ c #753E2D",
"@ c #6D502E",
"# c #2A3B4D",
"$ c #292675",
"% c #415A76",
"& c #CC1602",
"* c #DD1802",
"= c #F01A02",
"- c #815E36",
"; c #956B3E",
": c #FD4732",
"> c #AC7C48",
", c #FDD02C",
"< c #FFEB3D",
"1 c #D48C52",
"2 c #4690E9",
"3 c #72C1C8",
"4 c #808080",
"5 c gray58",
"6 c gray60",
"7 c #EBB385",
"8 c #FFD9AD",
"9 c #C0C0C0",
"0 c #CDCDCD",
"q c #CECECE",
"w c LightGray",
"e c gray90",
"r c #F8FFEE",
"t c white",
"y c None",
/* pixels */
"yyyyy     y      yy  yyyyyyyyyyy",
"yyyyyyO@@@ yO@@@@  @@  yyyyyyyyy",
"yyyyyyy --OOO----@@--@@  yyyyyyy",
"yyyyyyy  --;-OO---->;--@@   yyyy",
"yyyyy  @@-;-OO-->>>>>>>--@ yyyyy",
"yyyy @@---;>--;;>>;>>>;-@ yyyyyy",
"yyyyy  @@ >>>-;>>>;-.;;;-@ yyyyy",
"yyyyyyy  @->; @>>@;-@.-;;-- yyyy",
"yyyyyyyy @-;  @->;O;-@.-;;-@ yyy",
"yyyyyyyy @-- + --;;O-@.---@ yyyy",
"yyyyyyyy @- ++ @--;.;-@.-@ yyyyy",
"yyyyyyyy @-O  5 @--..-@.@@.yyyyy",
"yyyyyyyy  @O  w1 @-O7.@.@.yyyyyy",
"yyyyyyyy 1 722w7 @-O7..@@.yyyyyy",
"yyyyyyyy 88833w71 @..O@@.yyyyyyy",
"yyyyyyyy 88888887 @.O@@@.yyyyyyy",
"yyyyyyyy 1rr888887    O yyyyyyyy",
"yyyyyyyyy 178881  %%%% yyyyyyyyy",
"yyyyyyyyyy  ++  %%%..%% yyyyyyyy",
"yyyyyyyyyyy4Xo##  .qq.% yyyyyyyy",
"yyyyyyyyyyq &9###.qetq.yyyyyyyyy",
"yyyyyyyyyy9 *q###.qtteq yyyyyyyy",
"yyyyyyyyyyy =9#oo XX+4q yyyyyyyy",
"yyyyyyyyyyy =q.eeqeq1+4 yyyyyyyy",
"yyyyyyyyyyy *&.teetq71+ yyyyyyyy",
"yyyyyyyyyyy 6$.qqoe.1+  yyyyyyyy",
"yyyyyyyyyyy &&=..qq.  & yyyyyyyy",
"yyyyyyyyyyy &=:= ..o==& yyyyyyyy",
"yyyyyyyyyyy &=::====&&o yyyyyyyy",
"yyyyyyyyyyyy  178871   yyyyyyyyy",
"yyyyyyyyyyyyyy ,,<< yyyyyyyyyyyy",
"yyyyyyyyyyyyyy699996yyyyyyyyyyyy"
};
