/* XPM */
static char *_633008382217[] = {
/* columns rows colors chars-per-pixel */
"32 32 29 1 ",
"  c black",
". c #171C30",
"X c #183828",
"o c #212938",
"O c #573600",
"+ c #6D502E",
"@ c #2A3B4D",
"# c #292675",
"$ c #415A76",
"% c #CC1602",
"& c #DD1802",
"* c #F01A02",
"= c #815E36",
"- c #956B3E",
"; c #FD4732",
": c #AC7C48",
"> c #EAB322",
", c #FDD02C",
"< c #FFEB3D",
"1 c #D48C52",
"2 c #808080",
"3 c gray60",
"4 c #EBB385",
"5 c #FFD9AD",
"6 c #C0C0C0",
"7 c #CECECE",
"8 c gray90",
"9 c white",
"0 c None",
/* pixels */
"00000000000000      0     000000",
"0000000000    ++++O0 +++O0000000",
"000000000 ++++====OOO== 00000000",
"00000000 +====-=O====OO+ 0000000",
"0000000 +=----=OO=---:==+ 000000",
"0000000 +=-:-===O=-::::-=+ 00000",
"000000 +=-:::---=-::::-- =O 0000",
"00000 +=--::::::-::::::-= 000000",
"000000 +=---:::::::::---=+ 00000",
"000000 +--==--:::::--==--=+ 0000",
"00000 +---OO==--:--==OO---=+ 000",
"00000 +---=+OO==-==OO+=-=-= 0000",
"000000 -=-=+++OO=OO+++=-=- 00000",
"000000 ==-=+++++O++++++=+= 00000",
"0000000 +=+++++++++++++++ 000000",
"00000000 +++++++++++++++ 0000000",
"00000000   +++++++++++   0000000",
"0000000 77X  +++++++  X77 000000",
"000000 7887.$       $.7887 00000",
"0000002998o@.$$$$$$$.@o899200000",
"00000 2287o@@.......@@o7822 0000",
"00000 51ooo@@@@@@@@@@@ooo15 0000",
"00000 8oo7 @@@@@@@@@@@ 7oo8 0000",
"00000 787o 22222222222 o787 0000",
"000000 oo  %&*;;;;;*&%  oo 00000",
"0000000  0 ########### 0  000000",
"0000000000 %;**%%%**;% 000000000",
"0000000000 %;;;***;;;% 000000000",
"0000000000 14541o14541 000000000",
"0000000000o1>>>1o1>>>1o000000000",
"00000000000o,<,o0o,<,o0000000000",
"00000000000366630366630000000000"
};
