/* XPM */
static char *_632991885408[] = {
/* columns rows colors chars-per-pixel */
"32 32 5 1 ",
"  c #323232",
". c gray31",
"X c gray34",
"o c gray44",
"O c #7C7C7C",
/* pixels */
"XXXXXX. oXXoXXXXXXoXXX. oXXXXXXX",
"XoXXX. o oXXXXXXXXXXX. o oXXoXXX",
"XXXX. OXo oXXXoXXXXX. OXo oXXXoX",
"XXX. OXXXo oXXoXXXX. OXXXo oXXXX",
"XX. OXXXXXo oXXXXX. OXoXXXo oXoo",
"X. OXXXoXXXo oXXX. oXXXXoXXo oXX",
". OXXXXXXoXXo oX. OXXXXXXXXXo oX",
" OXXooXXXXXoXo . OXXXoXXXoXXXo .",
"oXXXXXXXoXXXXX. oXXXXXXXXXXXXX. ",
" oXXXoXXXoXXX. o oXXoXXXXXoXX. o",
"o oXXXXXXXXX. oXo oXXXXoXXXX. oX",
"Xo oXXXoXXX. OXXXo oXXXXXXX. OXX",
"XXo oXXXXX. OXXXoXo oXXXXX. OXXX",
"oXXo oXXX. OXXXXXXXo oXoX. OXXoX",
"XXXXo oX. OXXXoXXXXXo oX. OXXoXX",
"XoXXXo . OXXoXXXXoXoXo . oXXXXXX",
"XXoXXX. oXXXXXXXXXXXXX. oXXXXoXX",
"XXXXX. o oXoXXXXXXXXX. o oXXXXXX",
"oXXX. OXo oXXXXXXXXX. OXo ooXXXX",
"XXX. OXXXo oXXoXXXX. OXXXo oXXXX",
"XX. OXXXXXo oXXoXX. OXXoXXo oXXX",
"X. oXXoXXXXo oXXX. oXXXXXoXo oXX",
". OXXXXXXXoXo oX. OXXXXXXXXXo oX",
" OooXXXXooXXXo . OXXXXXXXXXXXo .",
"oXXXXXXoXXXXXX. oXXXoXoXXXXXXX. ",
" oXXXXXXXoXXX. o oXXXXXXXoXXX. o",
"o oXoooXXXXX. OXo oXoXoXXXXX. OX",
"Xo oXXoXXXX. OXXXo oXXXXoXX. OXX",
"XXo oXXXXX. OXoXXXo oXXXXX. oXXX",
"XXXo oXXX. OXXXXXooo oXXX. OXoXX",
"XXXXo oX. OXoXXXXXXXo oX. oXXXoX",
"oXoXXo . oXXXXXXoXXXXo . OXXXXXX"
};
