/* XPM */
static char *_632810776497[] = {
/* columns rows colors chars-per-pixel */
"32 32 41 1 ",
"  c #5FAE43",
". c #6BB54D",
"X c #6FB84F",
"o c #73BB4F",
"O c #74B554",
"+ c #75BB53",
"@ c #7BBD55",
"# c #73B559",
"$ c #7BB65C",
"% c #76BA59",
"& c #7DBC5A",
"* c #7FBA61",
"= c #77C14F",
"- c #75C050",
"; c #7DC155",
": c #7FC159",
"> c #81BF56",
", c #82BD5C",
"< c #85BB61",
"1 c #8ABE63",
"2 c #82C456",
"3 c #85C957",
"4 c #8CCB57",
"5 c #84C35B",
"6 c #8AC55D",
"7 c #87C859",
"8 c #8CCA5B",
"9 c #94C75F",
"0 c #91CC5D",
"q c #98CF5E",
"w c #93D157",
"e c #93D15B",
"r c #86C161",
"t c #8BC462",
"y c #8DC962",
"u c #91C663",
"i c #93CA63",
"p c #96CD6B",
"a c #99CF6B",
"s c #99D163",
"d c #9FD16B",
/* pixels */
"0&&&50w2@2566%%:rr&t1<*&67;5:%@4",
"y&O@604@&5775,%&%#&65$$$24225&@2",
"6%%6996O,757665,&,505#&%282@2&%;",
"&%6i61,,52,6u9t686>42745&7@@;@+:",
",,9i,,,,,&>6uuuuq0>@24e7&@@;2;+&",
"&1u1,,,,,5,,isuu9986@@e4;&%;47+X",
",1111,,,56&&rsit,6282+57;;%@487+",
"<<1u1,,66,&&6itt5+o27;&;22%%687@",
",1us9,$,5,,,06tr2@oo==-;78855:;8",
"u11906,$,,,6i557072+oo@@@40yr;+7",
"61,$805,,,,,6%%2w0862o+++26py2@+",
"06,,56,,t6,2:%%:606888+%222rpi2+",
"9,22@22>1t++@++2,,t666&56,+&ypy;",
"4224@78o@6.o++;4:#,696&>5&+o%yi6",
"2722274484@@;+;06##6t6@O@,&++7s4",
"242@4222662;++2w46#,6,@&5r,&:6i8",
"&4;+;-X;;;3-+:78w09,<r<ty<<t6r56",
"%2;@;-X-. -25it,4w00u1rt1<1tt&&4",
"&&@:42+X..+2iat$,8w6ut1<<<ty1522",
";&%&88;++%@5up<%*56rty1,*&rut68@",
";;%+607%-;-:yu<O555yr<65&&68558+",
"285%77772;;;,65%r5@55&>55&66578@",
"24iy5&+802%-;75:55;@&7%>5@772272",
"@38y62o&882;:555:;;@;;6i5$24;223",
";25ypy:X3i875:33@;2:&&id6O22@>74",
"5:@&pay-:007;+;:o27:@5uu,$>,5577",
"r&++:py7;7;;-.X%&27&5tt,%&,6y674",
"55%+%6i8;%-%o+-&565:ri1&$66yt6,9",
"%,,+-7i03+--;75ryyr%:tr,6tyr<&<t",
"65&,2r6662;:447%%&%;56tr6665&&<1",
"06,uy67655;@505%#;2;;56tt6665&,<",
"q6uiu576552&@tr##57256tt,6667@+1"
};
