/* XPM */
static char *_632747910910[] = {
/* columns rows colors chars-per-pixel */
"32 32 37 1 ",
"  c black",
". c #211F14",
"X c #183828",
"o c #212938",
"O c #573600",
"+ c #753E2D",
"@ c #6D502E",
"# c #2A3B4D",
"$ c #292675",
"% c #CC1602",
"& c #DD1802",
"* c #F01A02",
"= c #815E36",
"- c #956B3E",
"; c #FD4732",
": c #AC7C48",
"> c #EAB322",
", c #FDD02C",
"< c #FFEB3D",
"1 c #B4814A",
"2 c #D48C52",
"3 c #4690E9",
"4 c #72C1C8",
"5 c #808080",
"6 c gray58",
"7 c gray60",
"8 c #EBB385",
"9 c #FFD9AD",
"0 c #C0C0C0",
"q c #CDCDCD",
"w c #CECECE",
"e c LightGray",
"r c gray90",
"t c #F8FFEE",
"y c #F3F3F3",
"u c white",
"i c None",
/* pixels */
"iiiiiii     i      iiiiiiiiiiiii",
"iiiiiiiiO@@@ iO@@@@    iiiiiiiii",
"iiiiiiiii ==OOO====@@@@ iiiiiiii",
"iiiiiiii @OO====O=-====@ iiiiiii",
"iiiiiii @==::--=OO=-:--=@ iiiiii",
"iiiiii @=-:::::=O===::-=@ iiiiii",
"iiiii O= --=::::=:-::: -=@ iiiii",
"iiiiiii =- @-:::::--::: -=@ iiii",
"iiiiii @= @=-::::- =-:: =@ iiiii",
"iiiii @= @=-: :::-= =-:- @ iiiii",
"iiii @=- =-- + :-= + =-- 1@ iiii",
"iiiii = =-  +2 -= +2 =--O @ iiii",
"iiiiii  = 26  O== 2   =- 2 iiiii",
"iiiiii 8 +2e  O= 22  e = 8 iiiii",
"iiiiiii O+2e338 88833e =O iiiiii",
"iiiiiiii +8e449999944e2O iiiiiii",
"iiiiiiii  2899999999982  iiiiiii",
"iiiiii  ww+2899ttt9982+qq  iiiii",
"iiiii 5wrrw.+2288822+.qrrq5 iiii",
"iiii ++5urw.XXXXXXXXX.eru5++ iii",
"iiii 22 5qX.#0589850#.Xq5 22 iii",
"iii 28oo X ##q%q5q%q## X oo82 ii",
"iii 2orww ###0&0q0&0### qero2 ii",
"iiii wryrq 55q**5**q55 qryrq iii",
"iiii woyyw %&*;*7*;*&% qyyoq iii",
"iiiii owq $$$$$7$7$$$$$ qqo iiii",
"iiiiii    o%;*&&5&&*;%o    iiiii",
"iiiiiiiii o%;;**7**;;%o iiiiiiii",
"iiiiiiiiii 28982o28982 iiiiiiiii",
"iiiiiiiiiio2>>>2o2>>>2oiiiiiiiii",
"iiiiiiiiiiio,<,oio,<,oiiiiiiiiii",
"iiiiiiiiiii70007i70007iiiiiiiiii"
};
