/* XPM */
static char *_632911102731[] = {
/* columns rows colors chars-per-pixel */
"32 32 177 2 ",
"   c #020202",
".  c #0A0604",
"X  c #0C0B06",
"o  c #070909",
"O  c #100B07",
"+  c #130E08",
"@  c #0B1007",
"#  c #0E140A",
"$  c #12130A",
"%  c #1C140C",
"&  c #141C0D",
"*  c #0D0E11",
"=  c #171917",
"-  c #24180E",
";  c #251C15",
":  c #15200F",
">  c #172111",
",  c #1B2512",
"<  c #1E2B14",
"1  c #232116",
"2  c #202716",
"3  c #213217",
"4  c #223018",
"5  c #1C1C20",
"6  c #192629",
"7  c #193526",
"8  c #1D3B2B",
"9  c #1D2431",
"0  c #36342A",
"q  c #262C3A",
"w  c #2A363D",
"e  c #472C01",
"r  c #492E00",
"t  c #4D3202",
"y  c #553501",
"u  c #5A3904",
"i  c #5B3A06",
"p  c #633526",
"a  c #6D3B2A",
"s  c #723D2C",
"d  c #2F4A3D",
"f  c #5C4409",
"g  c #564024",
"h  c #5B4326",
"j  c #5F4628",
"k  c #614729",
"l  c #634829",
"z  c #79422E",
"x  c #6E512E",
"c  c #76552F",
"v  c #794434",
"b  c #775631",
"n  c #7D5B34",
"m  c #293544",
"M  c #2B3C4E",
"N  c #353A43",
"B  c #2E3E50",
"V  c #252368",
"C  c #35256C",
"Z  c #38266D",
"A  c #392870",
"S  c #353277",
"D  c #3A4643",
"F  c #374352",
"G  c #4A4547",
"H  c #686867",
"J  c #746C6B",
"K  c #7C726F",
"L  c #787676",
"P  c #B11609",
"I  c #B8210E",
"U  c #C71806",
"Y  c #DD1A04",
"T  c #D51A09",
"R  c #E41C07",
"E  c #F01C04",
"W  c #D1240F",
"Q  c #EB260D",
"!  c #F1250C",
"~  c #EB2813",
"^  c #F02B11",
"/  c #815E35",
"(  c #846037",
")  c #8B6439",
"_  c #946A3E",
"`  c #A06B3E",
"'  c #F8422D",
"]  c #EF4334",
"[  c #FA4933",
"{  c #FC523B",
"}  c #825345",
"|  c #996E40",
" . c #A47644",
".. c #AB7243",
"X. c #A77946",
"o. c #AA7A47",
"O. c #AC7C48",
"+. c #B47949",
"@. c #BD7D4B",
"#. c #867B7A",
"$. c #C17F4B",
"%. c #73B94F",
"&. c #71A951",
"*. c #74B653",
"=. c #78B757",
"-. c #75BA53",
";. c #7BBD55",
":. c #7EB65E",
">. c #7DBC5A",
",. c #7FB862",
"<. c #7EC156",
"1. c #7FC059",
"2. c #EBB623",
"3. c #EAB626",
"4. c #E0BE3D",
"5. c #F3CC3D",
"6. c #F7D03E",
"7. c #85B95A",
"8. c #82BD5D",
"9. c #85BB61",
"0. c #8ABE63",
"q. c #C7834B",
"w. c #C4824D",
"e. c #CC8751",
"r. c #CF8951",
"t. c #D28B52",
"y. c #C1936C",
"u. c #D5A279",
"i. c #E5AC7A",
"p. c #E3AC7F",
"a. c #EBB37C",
"s. c #83C456",
"d. c #88C957",
"f. c #84C35B",
"g. c #89C55D",
"h. c #8CCA5B",
"j. c #92CC5C",
"k. c #94D158",
"l. c #8CC361",
"z. c #8EC961",
"x. c #91C661",
"c. c #93CB62",
"v. c #96CE6C",
"b. c #99D163",
"n. c #F8E54B",
"m. c #478EE3",
"M. c #5495E2",
"N. c #76C2C8",
"B. c #878584",
"V. c #948B8D",
"C. c #998B8D",
"Z. c #989D95",
"A. c #9B9B9A",
"S. c #A7A8A8",
"D. c #B3B5B5",
"F. c #BEBEBE",
"G. c #DDB08C",
"H. c #E5B084",
"J. c #EAB284",
"K. c #EAB589",
"L. c #C4ACAA",
"P. c #C6BCBB",
"I. c #FCD39E",
"U. c #CDC0BF",
"Y. c #F3D7AF",
"T. c #FDD6AA",
"R. c #FFD9AD",
"E. c #BDBFC0",
"W. c #C2C3C3",
"Q. c #CCC7C7",
"!. c #CCCCCC",
"~. c #CDCED1",
"^. c #D2D2D1",
"/. c #D8D9D9",
"(. c #E5E5E5",
"). c #F8FDEA",
"_. c gray95",
/* pixels */
"j.>.>.=.f.k.k.@         f.          X g.l.9.,.>.g.d.<.f.1.=.;.g.",
"z.>.*.;.h.j.d.&.y k h l $ &.r k k k h $ # # < >.s.h.s.<.f.1.<.1.",
"g.=.-.l.g.x.g.*.*.+ n / t f u / n n n j k k g < s.h.s.<.f.1.-.<.",
">.>.l.z.g.l.8.7.& k u u b n n n i n | n n n n g < d.;.;.<.<.*.<.",
">.8.x.x.8.8.9.& h n n  . ._ _ / u i ( _ X._ _ b g 3 <.<.<.<.-.1.",
">.0.x.0.7.8.& j n _ X.O.O.o.o.n u n ( ( O.X._ n g : *.1.d.d.-.%.",
"8.0.0.0.9.& t n O _ _ ( O.O.O.o.( X._ O.O.| % _ n g 3 *.h.z.f.%.",
"9.0.x.x.0.=.7.# c _ O x _ O.O.O.X.O._ | O.X._ % ) n g 3 d.h.d.<.",
"9.0.c.b.j.7.$ k / O l / _ O.O.O.X.) + ( ` +._ + n j < >.f.<.;.h.",
"l.0.0.j.j.& j n X l n | o.X O.O.O._ c + ( _ o.b $ h , z.l.;.-.f.",
"z.0.9.=.& k n _   n | _ . a X O._ n X p $ ( _ / % X.g 4 z.f.<.-.",
"j.g.>.8.;.$ b X b _ .   s e.  _ n . z @.X ( _ ) e $ h , v.z.f.-.",
"g.8.s.s.s.7.@   n . q.V.. . y / n X $.    + ( n - .., *.z.v.z.<.",
"h.s.s.d.<.s.@ u.O a t.^.    u n X r.$.  = D.+ c ; y.: -.;.z.z.d.",
"s.s.s.s.s.d.d.@ y s t.^.m.m.p.o H.J.G.m.M.F.O n r , >.-.-.d.b.h.",
"s.j.s.;.d.s.s.s.. a H.^.N.N.R.T.R.R.Y.N.N.U.q.r & 8.8.>.<.g.c.h.",
"<.d.<.-.<.-.%.<.o   r.J.R.R.R.Y.R.R.R.R.T.a.+.  = 8.8.0.g.f.l.g.",
">.f.<.;.<.%.@ . W.!.v r.K.R.R.).).).T.T.H.w.} !.S.. , l.l.>.;.d.",
">.;.;.>.d.# L W.(.(.~.; s t.e.H.H.H.r.q.a 0 ~.(.(.F.H < 0.f.f.s.",
"<.>.-.;.# a v L _.(.~., 8 8 8 8 8 8 8 8 7 0 !.(.(.K z p < g.h.;.",
"<.1.;.*.$ w.r.O L W.8 1 M P.y.G.T.H.B.D.m , d F.H - r.` < 7.j.%.",
"1.d.1.# @.p.N q * 7   M M Q.P W.B.P.W E.M m . 7 * w G i.` 4 d.<.",
"<.h.h.> +.N /.^.^.* m B B P.Y F.!.L.~ D.M M m 6 ^.^.W.G _ 3 d.s.",
"<.d.h.z.# F./._.(.~.  #.#.P.E Q #.E ~ P.#.J 5 ~.(._./.S.2 <.d.d.",
"<.f.f.z.> D.m (._.W.o I T R ] Q C.Q ] R U P 5 !._.~.F A.3 <.d.d.",
"f.<.<.1.v.> 9 D.E.o V C A Z Z C.S V.C C C C V = F.S.9 4 s.g.d.d.",
"l.>.=.-.1.c.& @ @   9 U [ E R T #.Y R ! ' P 9   @ X 3 f.z.g.g.d.",
"<.1.;.*.<.g.c.z.<.# 9 W { { ! Q V.E ^ { [ I 6 , :.g.g.z.z.l.8.j.",
";.8.8.-.-.f.z.h.1.<.o r.a.I.a.e.q t.J.I.i.@.& l.f.l.g.l.9.:.l.0.",
"f.f.>.>.1.z.z.h.d.f.w w.2.3.2.@.N q.2.3.3.O.D f.l.g.g.g.>.>.l.9.",
"c.g.0.x.z.l.f.g.f.f.<.m 5.n.5.M &.D 6.n.4.D l.l.l.g.g.f.f.>.>.9.",
"b.g.x.x.z.f.d.d.l.1.<.Z.U.E.E.Z.=.A.E.U.F.Z.l.l.f.g.z.g.d.;.-.9."
};
